<svg width="1920" height="1080" viewBox="0 0 1920 1080" fill="none" xmlns="http://www.w3.org/2000/svg">
<g clip-path="url(#clip0_35_2)">
<rect width="1920" height="1080" fill="white"/>
<rect width="1920" height="1080" transform="matrix(1 0 0 -1 0 1080)" fill="#323131"/>
<g opacity="0.1">
<path d="M683.703 483.957L865.444 431.348" stroke="#FFEBCE"/>
<path d="M1055.56 483.957L1237.3 431.348" stroke="#FFEBCE"/>
<path d="M1427.41 483.957L1609.15 431.348" stroke="#FFEBCE"/>
<path d="M1799.26 483.957L1981 431.348" stroke="#FFEBCE"/>
<path d="M311.852 483.957L493.593 431.348" stroke="#FFEBCE"/>
<path d="M-60 483.957L121.741 431.348" stroke="#FFEBCE"/>
<path d="M683.703 544.936L865.444 492.327" stroke="#FFEBCE"/>
<path d="M1055.56 544.936L1237.3 492.327" stroke="#FFEBCE"/>
<path d="M1427.41 544.936L1609.15 492.327" stroke="#FFEBCE"/>
<path d="M1799.26 544.936L1981 492.327" stroke="#FFEBCE"/>
<path d="M311.852 544.936L493.593 492.327" stroke="#FFEBCE"/>
<path d="M-60 544.936L121.741 492.327" stroke="#FFEBCE"/>
<path d="M683.703 605.915L865.444 553.306" stroke="#FFEBCE"/>
<path d="M1055.56 605.915L1237.3 553.306" stroke="#FFEBCE"/>
<path d="M1427.41 605.915L1609.15 553.306" stroke="#FFEBCE"/>
<path d="M1799.26 605.915L1981 553.306" stroke="#FFEBCE"/>
<path d="M311.852 605.915L493.593 553.306" stroke="#FFEBCE"/>
<path d="M-60 605.915L121.741 553.306" stroke="#FFEBCE"/>
<path d="M683.703 666.894L865.444 614.285" stroke="#FFEBCE"/>
<path d="M1055.56 666.894L1237.3 614.285" stroke="#FFEBCE"/>
<path d="M1427.41 666.894L1609.15 614.285" stroke="#FFEBCE"/>
<path d="M1799.26 666.894L1981 614.285" stroke="#FFEBCE"/>
<path d="M311.852 666.894L493.593 614.285" stroke="#FFEBCE"/>
<path d="M-60 666.894L121.741 614.285" stroke="#FFEBCE"/>
<path d="M683.703 727.873L865.444 675.264" stroke="#FFEBCE"/>
<path d="M1055.56 727.873L1237.3 675.264" stroke="#FFEBCE"/>
<path d="M1427.41 727.873L1609.15 675.264" stroke="#FFEBCE"/>
<path d="M1799.26 727.873L1981 675.264" stroke="#FFEBCE"/>
<path d="M311.852 727.873L493.593 675.264" stroke="#FFEBCE"/>
<path d="M-60 727.873L121.741 675.264" stroke="#FFEBCE"/>
<path d="M683.703 788.851L865.444 736.242" stroke="#FFEBCE"/>
<path d="M1055.56 788.851L1237.3 736.242" stroke="#FFEBCE"/>
<path d="M1427.41 788.851L1609.15 736.242" stroke="#FFEBCE"/>
<path d="M1799.26 788.851L1981 736.242" stroke="#FFEBCE"/>
<path d="M311.852 788.851L493.593 736.242" stroke="#FFEBCE"/>
<path d="M-60 788.851L121.741 736.242" stroke="#FFEBCE"/>
<path d="M683.703 849.831L865.444 797.222" stroke="#FFEBCE"/>
<path d="M1055.56 849.831L1237.3 797.222" stroke="#FFEBCE"/>
<path d="M1427.41 849.831L1609.15 797.222" stroke="#FFEBCE"/>
<path d="M1799.26 849.831L1981 797.222" stroke="#FFEBCE"/>
<path d="M311.852 849.831L493.593 797.222" stroke="#FFEBCE"/>
<path d="M-60 849.831L121.741 797.222" stroke="#FFEBCE"/>
<path d="M683.703 910.809L865.444 858.2" stroke="#FFEBCE"/>
<path d="M1055.56 910.809L1237.3 858.2" stroke="#FFEBCE"/>
<path d="M1427.41 910.809L1609.15 858.2" stroke="#FFEBCE"/>
<path d="M1799.26 910.809L1981 858.2" stroke="#FFEBCE"/>
<path d="M311.852 910.809L493.593 858.2" stroke="#FFEBCE"/>
<path d="M-60 910.809L121.741 858.2" stroke="#FFEBCE"/>
<path d="M683.703 971.789L865.444 919.18" stroke="#FFEBCE"/>
<path d="M1055.56 971.789L1237.3 919.18" stroke="#FFEBCE"/>
<path d="M1427.41 971.789L1609.15 919.18" stroke="#FFEBCE"/>
<path d="M1799.26 971.789L1981 919.18" stroke="#FFEBCE"/>
<path d="M311.852 971.789L493.593 919.18" stroke="#FFEBCE"/>
<path d="M-60 971.789L121.741 919.18" stroke="#FFEBCE"/>
<path d="M683.703 1032.77L865.444 980.158" stroke="#FFEBCE"/>
<path d="M1055.56 1032.77L1237.3 980.158" stroke="#FFEBCE"/>
<path d="M1427.41 1032.77L1609.15 980.158" stroke="#FFEBCE"/>
<path d="M1799.26 1032.77L1981 980.158" stroke="#FFEBCE"/>
<path d="M311.852 1032.77L493.593 980.158" stroke="#FFEBCE"/>
<path d="M-60 1032.77L121.741 980.158" stroke="#FFEBCE"/>
<path d="M683.703 483.957L865.444 431.348" stroke="#FFEBCE" stroke-width="2"/>
<path d="M1055.56 483.957L1237.3 431.348" stroke="#FFEBCE" stroke-width="2"/>
<path d="M1427.41 483.957L1609.15 431.348" stroke="#FFEBCE" stroke-width="2"/>
<path d="M1799.26 483.957L1981 431.348" stroke="#FFEBCE" stroke-width="2"/>
<path d="M311.852 483.957L493.593 431.348" stroke="#FFEBCE" stroke-width="2"/>
<path d="M-60 483.957L121.741 431.348" stroke="#FFEBCE" stroke-width="2"/>
<path d="M683.703 544.935L865.444 492.326" stroke="#FFEBCE" stroke-width="2"/>
<path d="M1055.56 544.935L1237.3 492.326" stroke="#FFEBCE" stroke-width="2"/>
<path d="M1427.41 544.935L1609.15 492.326" stroke="#FFEBCE" stroke-width="2"/>
<path d="M1799.26 544.935L1981 492.326" stroke="#FFEBCE" stroke-width="2"/>
<path d="M311.852 544.935L493.593 492.326" stroke="#FFEBCE" stroke-width="2"/>
<path d="M-60 544.935L121.741 492.326" stroke="#FFEBCE" stroke-width="2"/>
<path d="M683.703 605.915L865.444 553.306" stroke="#FFEBCE" stroke-width="2"/>
<path d="M1055.56 605.915L1237.3 553.306" stroke="#FFEBCE" stroke-width="2"/>
<path d="M1427.41 605.915L1609.15 553.306" stroke="#FFEBCE" stroke-width="2"/>
<path d="M1799.26 605.915L1981 553.306" stroke="#FFEBCE" stroke-width="2"/>
<path d="M311.852 605.915L493.593 553.306" stroke="#FFEBCE" stroke-width="2"/>
<path d="M-60 605.915L121.741 553.306" stroke="#FFEBCE" stroke-width="2"/>
<path d="M683.703 666.893L865.444 614.284" stroke="#FFEBCE" stroke-width="2"/>
<path d="M1055.56 666.893L1237.3 614.284" stroke="#FFEBCE" stroke-width="2"/>
<path d="M1427.41 666.893L1609.15 614.284" stroke="#FFEBCE" stroke-width="2"/>
<path d="M1799.26 666.893L1981 614.284" stroke="#FFEBCE" stroke-width="2"/>
<path d="M311.852 666.893L493.593 614.284" stroke="#FFEBCE" stroke-width="2"/>
<path d="M-60 666.893L121.741 614.284" stroke="#FFEBCE" stroke-width="2"/>
<path d="M683.703 727.873L865.444 675.264" stroke="#FFEBCE" stroke-width="2"/>
<path d="M1055.56 727.873L1237.3 675.264" stroke="#FFEBCE" stroke-width="2"/>
<path d="M1427.41 727.873L1609.15 675.264" stroke="#FFEBCE" stroke-width="2"/>
<path d="M1799.26 727.873L1981 675.264" stroke="#FFEBCE" stroke-width="2"/>
<path d="M311.852 727.873L493.593 675.264" stroke="#FFEBCE" stroke-width="2"/>
<path d="M-60 727.873L121.741 675.264" stroke="#FFEBCE" stroke-width="2"/>
<path d="M683.703 788.851L865.444 736.242" stroke="#FFEBCE" stroke-width="2"/>
<path d="M1055.56 788.851L1237.3 736.242" stroke="#FFEBCE" stroke-width="2"/>
<path d="M1427.41 788.851L1609.15 736.242" stroke="#FFEBCE" stroke-width="2"/>
<path d="M1799.26 788.851L1981 736.242" stroke="#FFEBCE" stroke-width="2"/>
<path d="M311.852 788.851L493.593 736.242" stroke="#FFEBCE" stroke-width="2"/>
<path d="M-60 788.851L121.741 736.242" stroke="#FFEBCE" stroke-width="2"/>
<path d="M683.703 849.831L865.444 797.222" stroke="#FFEBCE" stroke-width="2"/>
<path d="M1055.56 849.831L1237.3 797.222" stroke="#FFEBCE" stroke-width="2"/>
<path d="M1427.41 849.831L1609.15 797.222" stroke="#FFEBCE" stroke-width="2"/>
<path d="M1799.26 849.831L1981 797.222" stroke="#FFEBCE" stroke-width="2"/>
<path d="M311.852 849.831L493.593 797.222" stroke="#FFEBCE" stroke-width="2"/>
<path d="M-60 849.831L121.741 797.222" stroke="#FFEBCE" stroke-width="2"/>
<path d="M683.703 910.809L865.444 858.2" stroke="#FFEBCE" stroke-width="2"/>
<path d="M1055.56 910.809L1237.3 858.2" stroke="#FFEBCE" stroke-width="2"/>
<path d="M1427.41 910.809L1609.15 858.2" stroke="#FFEBCE" stroke-width="2"/>
<path d="M1799.26 910.809L1981 858.2" stroke="#FFEBCE" stroke-width="2"/>
<path d="M311.852 910.809L493.593 858.2" stroke="#FFEBCE" stroke-width="2"/>
<path d="M-60 910.809L121.741 858.2" stroke="#FFEBCE" stroke-width="2"/>
<path d="M683.703 971.788L865.444 919.179" stroke="#FFEBCE" stroke-width="2"/>
<path d="M1055.56 971.788L1237.3 919.179" stroke="#FFEBCE" stroke-width="2"/>
<path d="M1427.41 971.788L1609.15 919.179" stroke="#FFEBCE" stroke-width="2"/>
<path d="M1799.26 971.788L1981 919.179" stroke="#FFEBCE" stroke-width="2"/>
<path d="M311.852 971.788L493.593 919.179" stroke="#FFEBCE" stroke-width="2"/>
<path d="M-60 971.788L121.741 919.179" stroke="#FFEBCE" stroke-width="2"/>
<path d="M683.703 1032.77L865.444 980.158" stroke="#FFEBCE" stroke-width="2"/>
<path d="M1055.56 1032.77L1237.3 980.158" stroke="#FFEBCE" stroke-width="2"/>
<path d="M1427.41 1032.77L1609.15 980.158" stroke="#FFEBCE" stroke-width="2"/>
<path d="M1799.26 1032.77L1981 980.158" stroke="#FFEBCE" stroke-width="2"/>
<path d="M311.852 1032.77L493.593 980.158" stroke="#FFEBCE" stroke-width="2"/>
<path d="M-60 1032.77L121.741 980.158" stroke="#FFEBCE" stroke-width="2"/>
<path d="M1633.06 417L1780.13 456.457" stroke="#FFEBCE"/>
<path d="M1258.82 417L1405.89 456.457" stroke="#FFEBCE"/>
<path d="M884.575 417L1031.64 456.457" stroke="#FFEBCE"/>
<path d="M510.333 417L657.399 456.457" stroke="#FFEBCE"/>
<path d="M136.09 417L283.157 456.457" stroke="#FFEBCE"/>
<path d="M1633.06 466.022L1780.13 505.479" stroke="#FFEBCE"/>
<path d="M1258.82 466.022L1405.89 505.479" stroke="#FFEBCE"/>
<path d="M884.575 466.022L1031.64 505.479" stroke="#FFEBCE"/>
<path d="M510.333 466.022L657.399 505.479" stroke="#FFEBCE"/>
<path d="M136.089 466.022L283.156 505.479" stroke="#FFEBCE"/>
<path d="M1633.06 515.045L1780.13 554.502" stroke="#FFEBCE"/>
<path d="M1258.82 515.045L1405.89 554.502" stroke="#FFEBCE"/>
<path d="M884.575 515.045L1031.64 554.502" stroke="#FFEBCE"/>
<path d="M510.333 515.045L657.399 554.502" stroke="#FFEBCE"/>
<path d="M136.089 515.045L283.156 554.502" stroke="#FFEBCE"/>
<path d="M1633.06 564.066L1780.13 603.523" stroke="#FFEBCE"/>
<path d="M1258.82 564.066L1405.89 603.523" stroke="#FFEBCE"/>
<path d="M884.575 564.066L1031.64 603.523" stroke="#FFEBCE"/>
<path d="M510.333 564.066L657.399 603.523" stroke="#FFEBCE"/>
<path d="M136.089 564.066L283.156 603.523" stroke="#FFEBCE"/>
<path d="M1633.06 613.089L1780.13 652.546" stroke="#FFEBCE"/>
<path d="M1258.82 613.089L1405.89 652.546" stroke="#FFEBCE"/>
<path d="M884.575 613.089L1031.64 652.546" stroke="#FFEBCE"/>
<path d="M510.333 613.089L657.399 652.546" stroke="#FFEBCE"/>
<path d="M136.089 613.089L283.156 652.546" stroke="#FFEBCE"/>
<path d="M1633.06 662.111L1780.13 701.568" stroke="#FFEBCE"/>
<path d="M1258.82 662.111L1405.89 701.568" stroke="#FFEBCE"/>
<path d="M884.575 662.111L1031.64 701.568" stroke="#FFEBCE"/>
<path d="M510.333 662.111L657.399 701.568" stroke="#FFEBCE"/>
<path d="M136.089 662.111L283.156 701.568" stroke="#FFEBCE"/>
<path d="M1633.06 711.134L1780.13 750.591" stroke="#FFEBCE"/>
<path d="M1258.82 711.134L1405.89 750.591" stroke="#FFEBCE"/>
<path d="M884.575 711.134L1031.64 750.591" stroke="#FFEBCE"/>
<path d="M510.333 711.134L657.399 750.591" stroke="#FFEBCE"/>
<path d="M136.089 711.134L283.156 750.591" stroke="#FFEBCE"/>
<path d="M1633.06 760.156L1780.13 799.613" stroke="#FFEBCE"/>
<path d="M1258.82 760.156L1405.89 799.613" stroke="#FFEBCE"/>
<path d="M884.575 760.156L1031.64 799.613" stroke="#FFEBCE"/>
<path d="M510.333 760.156L657.399 799.613" stroke="#FFEBCE"/>
<path d="M136.089 760.156L283.156 799.613" stroke="#FFEBCE"/>
<path d="M1633.06 809.178L1780.13 848.635" stroke="#FFEBCE"/>
<path d="M1258.82 809.178L1405.89 848.635" stroke="#FFEBCE"/>
<path d="M884.575 809.178L1031.64 848.635" stroke="#FFEBCE"/>
<path d="M510.333 809.178L657.399 848.635" stroke="#FFEBCE"/>
<path d="M136.089 809.178L283.156 848.635" stroke="#FFEBCE"/>
<path d="M1633.06 858.2L1780.13 897.657" stroke="#FFEBCE"/>
<path d="M1258.82 858.2L1405.89 897.657" stroke="#FFEBCE"/>
<path d="M884.575 858.2L1031.64 897.657" stroke="#FFEBCE"/>
<path d="M510.333 858.2L657.399 897.657" stroke="#FFEBCE"/>
<path d="M136.089 858.2L283.156 897.657" stroke="#FFEBCE"/>
<path d="M1633.06 907.223L1780.13 946.68" stroke="#FFEBCE"/>
<path d="M1258.82 907.223L1405.89 946.68" stroke="#FFEBCE"/>
<path d="M884.575 907.223L1031.64 946.68" stroke="#FFEBCE"/>
<path d="M510.333 907.223L657.399 946.68" stroke="#FFEBCE"/>
<path d="M136.089 907.223L283.156 946.68" stroke="#FFEBCE"/>
<path d="M1633.06 956.245L1780.13 995.702" stroke="#FFEBCE"/>
<path d="M1258.82 956.245L1405.89 995.702" stroke="#FFEBCE"/>
<path d="M884.575 956.245L1031.64 995.702" stroke="#FFEBCE"/>
<path d="M510.333 956.245L657.399 995.702" stroke="#FFEBCE"/>
<path d="M136.089 956.245L283.156 995.702" stroke="#FFEBCE"/>
<path d="M1633.06 1005.27L1780.13 1044.72" stroke="#FFEBCE"/>
<path d="M1258.82 1005.27L1405.89 1044.72" stroke="#FFEBCE"/>
<path d="M884.575 1005.27L1031.64 1044.72" stroke="#FFEBCE"/>
<path d="M510.333 1005.27L657.399 1044.72" stroke="#FFEBCE"/>
<path d="M136.089 1005.27L283.156 1044.72" stroke="#FFEBCE"/>
</g>
<rect x="-1" y="868" width="1923" height="215" fill="#FFEBCE"/>
<path fill-rule="evenodd" clip-rule="evenodd" d="M177 934H193.314C193.314 934 193.45 973.154 232.468 973.154C199.84 973.154 199.84 934 199.84 934H216.154C216.154 934 212.891 969.891 238.993 969.891C219.17 969.891 222.679 934 222.679 934H238.993C238.993 934 225.942 973.154 258.57 973.154H274.884V979.679H258.57C225.942 979.679 238.993 1018.83 238.993 1018.83H222.679C222.679 1018.83 219.17 982.942 238.993 982.942C212.891 982.942 216.154 1018.83 216.154 1018.83H199.84C199.84 1018.83 199.84 979.679 232.468 979.679C193.45 979.679 193.314 1018.83 193.314 1018.83H177C177 1018.83 177 976.416 222.679 976.416C177 976.416 177 934 177 934Z" fill="#323131"/>
<path d="M310.894 991.632C306.025 991.632 302.157 990.113 299.29 987.076C296.468 983.993 295.058 979.958 295.058 974.97C295.058 969.983 296.468 965.971 299.29 962.933C302.157 959.85 306.025 958.309 310.894 958.309C315.263 958.309 318.767 959.419 321.406 961.641C324.091 963.817 325.615 966.741 325.979 970.414H318.539C317.72 966.741 315.172 964.905 310.894 964.905C308.255 964.905 306.184 965.789 304.682 967.558C303.226 969.28 302.498 971.751 302.498 974.97C302.498 978.189 303.226 980.683 304.682 982.451C306.184 984.174 308.255 985.035 310.894 985.035C315.126 985.035 317.674 983.313 318.539 979.867H325.979C325.615 983.449 324.091 986.305 321.406 988.436C318.767 990.567 315.263 991.632 310.894 991.632Z" fill="#323131"/>
<path d="M344.355 991.632C339.395 991.632 335.55 990.068 332.819 986.94C330.089 983.811 328.724 979.822 328.724 974.97C328.724 970.165 330.157 966.197 333.024 963.069C335.891 959.895 339.736 958.309 344.56 958.309C346.699 958.309 348.656 958.762 350.43 959.669C352.205 960.575 353.57 961.822 354.526 963.409V959.125H361.966V990.816H354.526V986.532C353.616 988.073 352.182 989.32 350.226 990.272C348.314 991.179 346.358 991.632 344.355 991.632ZM345.447 985.035C348.496 985.035 350.817 984.083 352.41 982.179C354.048 980.275 354.867 977.872 354.867 974.97C354.867 972.069 354.048 969.666 352.41 967.762C350.817 965.857 348.496 964.905 345.447 964.905C342.581 964.905 340.305 965.857 338.621 967.762C336.983 969.62 336.164 972.023 336.164 974.97C336.164 977.917 336.983 980.343 338.621 982.247C340.305 984.106 342.581 985.035 345.447 985.035Z" fill="#323131"/>
<path d="M383.181 984.559C384.683 984.559 385.935 984.469 386.936 984.287V990.816C385.389 991.088 383.546 991.224 381.407 991.224C380.178 991.224 379.109 991.133 378.198 990.952C377.288 990.771 376.219 990.363 374.99 989.728C373.762 989.048 372.806 987.892 372.123 986.26C371.441 984.627 371.099 982.565 371.099 980.071V965.313H365.707V959.125H371.099V949.536H378.54V959.125H385.844V965.313H378.54V978.371C378.54 980.91 378.904 982.587 379.632 983.403C380.36 984.174 381.543 984.559 383.181 984.559Z" fill="#323131"/>
<path d="M403.955 991.632C398.995 991.632 395.149 990.068 392.419 986.94C389.689 983.811 388.323 979.822 388.323 974.97C388.323 970.165 389.757 966.197 392.624 963.069C395.491 959.895 399.336 958.309 404.16 958.309C406.299 958.309 408.255 958.762 410.03 959.669C411.805 960.575 413.17 961.822 414.126 963.409V959.125H421.566V990.816H414.126V986.532C413.216 988.073 411.782 989.32 409.825 990.272C407.914 991.179 405.957 991.632 403.955 991.632ZM405.047 985.035C408.096 985.035 410.417 984.083 412.01 982.179C413.648 980.275 414.467 977.872 414.467 974.97C414.467 972.069 413.648 969.666 412.01 967.762C410.417 965.857 408.096 964.905 405.047 964.905C402.18 964.905 399.905 965.857 398.221 967.762C396.583 969.62 395.764 972.023 395.764 974.97C395.764 977.917 396.583 980.343 398.221 982.247C399.905 984.106 402.18 985.035 405.047 985.035Z" fill="#323131"/>
<path d="M428.378 990.816V943.211H435.819V990.816H428.378Z" fill="#323131"/>
<path d="M464.285 959.125H471.725V990.952C471.725 995.803 470.337 999.566 467.561 1002.24C464.876 1004.69 461.281 1005.91 456.776 1005.91C452.089 1005.91 448.448 1004.83 445.854 1002.65C443.579 1000.65 442.396 997.912 442.305 994.42H449.814C449.996 996.234 450.587 997.571 451.588 998.433C452.635 999.34 454.319 999.793 456.64 999.793C459.006 999.793 460.872 999.022 462.237 997.481C463.602 995.985 464.285 993.627 464.285 990.408V986.396C462.237 989.887 458.824 991.632 454.046 991.632C450.269 991.632 447.356 990.431 445.308 988.028C443.306 985.58 442.305 982.383 442.305 978.439V959.125H449.745V976.875C449.745 982.36 452.043 985.103 456.64 985.103C459.142 985.103 461.031 984.219 462.305 982.451C463.625 980.683 464.285 978.371 464.285 975.514V959.125Z" fill="#323131"/>
<path d="M489.705 991.632C485.701 991.632 482.447 990.612 479.944 988.572C477.441 986.532 476.19 984.038 476.19 981.091H483.63C483.63 982.451 484.222 983.562 485.405 984.423C486.633 985.285 488.203 985.716 490.115 985.716C491.525 985.716 492.64 985.375 493.459 984.695C494.279 984.015 494.688 983.109 494.688 981.975C494.688 980.162 493.892 979.051 492.299 978.643L484.108 976.399C479.512 975.129 477.214 972.205 477.214 967.626C477.214 964.996 478.351 962.797 480.627 961.029C482.902 959.215 485.837 958.309 489.432 958.309C493.482 958.309 496.577 959.215 498.716 961.029C500.9 962.842 501.992 965.223 501.992 968.17H494.688C494.688 966.855 494.188 965.835 493.186 965.109C492.231 964.339 490.888 963.953 489.159 963.953C487.839 963.953 486.747 964.271 485.883 964.905C485.018 965.495 484.586 966.265 484.586 967.218C484.586 968.94 485.496 970.074 487.316 970.618L494.893 972.794C497.077 973.429 498.852 974.517 500.217 976.058C501.582 977.555 502.265 979.3 502.265 981.295C502.265 984.378 501.15 986.872 498.92 988.776C496.736 990.68 493.664 991.632 489.705 991.632Z" fill="#323131"/>
<path d="M514.759 953.004C513.712 954.047 512.392 954.568 510.8 954.568C509.207 954.568 507.887 954.047 506.841 953.004C505.794 951.916 505.271 950.601 505.271 949.06C505.271 947.518 505.794 946.226 506.841 945.183C507.887 944.095 509.207 943.551 510.8 943.551C512.392 943.551 513.712 944.095 514.759 945.183C515.805 946.226 516.329 947.518 516.329 949.06C516.329 950.601 515.805 951.916 514.759 953.004ZM507.045 990.816V959.125H514.486V990.816H507.045Z" fill="#323131"/>
<path d="M532.44 991.632C528.435 991.632 525.181 990.612 522.679 988.572C520.176 986.532 518.924 984.038 518.924 981.091H526.365C526.365 982.451 526.956 983.562 528.139 984.423C529.368 985.285 530.938 985.716 532.849 985.716C534.26 985.716 535.375 985.375 536.194 984.695C537.013 984.015 537.423 983.109 537.423 981.975C537.423 980.162 536.626 979.051 535.034 978.643L526.842 976.399C522.246 975.129 519.948 972.205 519.948 967.626C519.948 964.996 521.086 962.797 523.361 961.029C525.637 959.215 528.572 958.309 532.167 958.309C536.217 958.309 539.311 959.215 541.45 961.029C543.634 962.842 544.727 965.223 544.727 968.17H537.423C537.423 966.855 536.922 965.835 535.921 965.109C534.965 964.339 533.623 963.953 531.894 963.953C530.574 963.953 529.482 964.271 528.617 964.905C527.753 965.495 527.32 966.265 527.32 967.218C527.32 968.94 528.23 970.074 530.051 970.618L537.628 972.794C539.812 973.429 541.587 974.517 542.952 976.058C544.317 977.555 545 979.3 545 981.295C545 984.378 543.885 986.872 541.655 988.776C539.471 990.68 536.399 991.632 532.44 991.632Z" fill="#323131"/>
<path d="M1113.12 963.185V960.235H1136.05V963.185H1126.17V992.246H1122.95V963.185H1113.12ZM1141.11 992.201H1138.02V959.653H1141.11V974.363C1142.49 971.769 1145.13 970.026 1148.75 970.026C1154.43 970.026 1156.98 973.558 1156.98 979.012V992.246H1153.89V979.683C1153.89 974.631 1151.53 972.842 1148.17 972.842C1143.52 972.842 1141.11 976.285 1141.11 980.443V992.201ZM1170.42 992.783C1164.07 992.783 1159.82 988.222 1159.82 981.427C1159.82 974.676 1164.02 970.026 1170.19 970.026C1176.05 970.026 1180.03 974.184 1180.03 980.309V981.829H1162.82C1163.04 987.105 1165.81 990.145 1170.46 990.145C1173.99 990.145 1176.27 988.625 1177.08 985.763H1180.03C1178.87 990.324 1175.51 992.783 1170.42 992.783ZM1170.19 972.664C1166.12 972.664 1163.44 975.346 1162.9 979.594H1176.94C1176.94 975.436 1174.26 972.664 1170.19 972.664ZM1210.77 978.163H1197.67V992.246H1194.45V960.235H1213.32V963.185H1197.67V975.257H1210.77V978.163ZM1217.79 964.661C1216.54 964.661 1215.51 963.632 1215.51 962.381C1215.51 961.129 1216.54 960.056 1217.79 960.056C1219.04 960.056 1220.12 961.129 1220.12 962.381C1220.12 963.632 1219.04 964.661 1217.79 964.661ZM1216.27 992.246V970.607H1219.36V992.246H1216.27ZM1235.31 970.339V973.111H1233.61C1229.63 973.111 1227.09 975.793 1227.09 979.906V992.246H1224V970.607H1226.91L1227.13 973.96C1227.98 971.635 1230.26 970.115 1233.3 970.115C1233.97 970.115 1234.55 970.16 1235.31 970.339ZM1235.79 986.166H1238.74C1238.74 988.669 1240.62 990.234 1243.66 990.234C1247.01 990.234 1248.98 988.804 1248.98 986.479C1248.98 984.69 1248.09 983.662 1245.54 983.036L1241.83 982.097C1238.07 981.158 1236.24 979.191 1236.24 976.24C1236.24 972.44 1239.41 970.026 1244.06 970.026C1248.62 970.026 1251.57 972.53 1251.71 976.553H1248.71C1248.62 974.05 1246.88 972.574 1243.97 972.574C1240.93 972.574 1239.23 973.871 1239.23 976.196C1239.23 977.85 1240.4 979.012 1242.77 979.594L1246.48 980.532C1250.23 981.471 1251.93 983.215 1251.93 986.345C1251.93 990.234 1248.62 992.783 1243.7 992.783C1238.83 992.783 1235.79 990.189 1235.79 986.166ZM1260.18 992.246H1257.14V973.2H1252.81V970.607H1257.14V963.767H1260.18V970.607H1264.52V973.2H1260.18V992.246ZM1276.11 968.55C1276.11 963.185 1280.4 959.653 1286.84 959.653C1292.61 959.653 1296.41 962.872 1296.9 968.237H1293.63C1293.28 964.616 1290.82 962.559 1286.79 962.559C1282.28 962.559 1279.33 964.884 1279.33 968.506C1279.33 971.322 1280.98 973.111 1284.34 973.96L1289.83 975.301C1294.84 976.509 1297.44 979.37 1297.44 983.707C1297.44 989.251 1293.14 992.783 1286.53 992.783C1280.31 992.783 1276.11 989.519 1275.71 984.288H1279.02C1279.19 987.641 1282.14 989.832 1286.53 989.832C1291.22 989.832 1294.22 987.552 1294.22 983.886C1294.22 981.024 1292.61 979.146 1289.16 978.342L1283.75 977C1278.75 975.793 1276.11 972.932 1276.11 968.55ZM1309.84 992.783C1303.49 992.783 1299.24 988.222 1299.24 981.427C1299.24 974.676 1303.45 970.026 1309.62 970.026C1315.47 970.026 1319.45 974.184 1319.45 980.309V981.829H1302.24C1302.46 987.105 1305.24 990.145 1309.89 990.145C1313.42 990.145 1315.7 988.625 1316.5 985.763H1319.45C1318.29 990.324 1314.94 992.783 1309.84 992.783ZM1309.62 972.664C1305.55 972.664 1302.87 975.346 1302.33 979.594H1316.37C1316.37 975.436 1313.69 972.664 1309.62 972.664ZM1321.08 981.471C1321.08 974.676 1325.23 970.026 1331.54 970.026C1336.55 970.026 1340.21 972.932 1341.06 977.403H1337.98C1337.17 974.407 1334.58 972.753 1331.58 972.753C1327.2 972.753 1324.12 976.106 1324.12 981.427C1324.12 986.568 1326.98 990.011 1331.36 990.011C1334.58 990.011 1337.17 988.222 1338.02 985.45H1341.15C1340.12 989.877 1336.28 992.783 1331.36 992.783C1325.23 992.783 1321.08 988.267 1321.08 981.471ZM1359.24 970.607H1362.32V992.246H1359.64L1359.24 988.58C1358.03 991.084 1355.03 992.783 1351.64 992.783C1346.54 992.783 1343.77 989.295 1343.77 984.02V970.562H1346.9V983.036C1346.9 988.178 1349.18 990.011 1352.62 990.011C1356.78 990.011 1359.24 987.239 1359.24 982.097V970.607ZM1378.27 970.339V973.111H1376.57C1372.59 973.111 1370.04 975.793 1370.04 979.906V992.246H1366.96V970.607H1369.87L1370.09 973.96C1370.94 971.635 1373.22 970.115 1376.26 970.115C1376.93 970.115 1377.51 970.16 1378.27 970.339ZM1382.1 964.661C1380.85 964.661 1379.82 963.632 1379.82 962.381C1379.82 961.129 1380.85 960.056 1382.1 960.056C1383.36 960.056 1384.43 961.129 1384.43 962.381C1384.43 963.632 1383.36 964.661 1382.1 964.661ZM1380.58 992.246V970.607H1383.67V992.246H1380.58ZM1393.28 992.246H1390.24V973.2H1385.9V970.607H1390.24V963.767H1393.28V970.607H1397.61V973.2H1393.28V992.246ZM1397.65 1001.68V999.131H1400.02C1401.9 999.131 1403.78 998.997 1404.85 996.091L1405.79 993.543L1397.03 970.607H1400.29L1407.26 989.474L1414.1 970.607H1417.28L1407.35 997.209C1406.1 1000.61 1404 1001.99 1400.91 1001.99C1399.62 1001.99 1398.63 1001.9 1397.65 1001.68ZM1430.38 992.246H1427.12L1438.87 960.235H1442.85L1454.75 992.246H1451.39L1448.26 983.751H1433.51L1430.38 992.246ZM1440.44 964.75L1434.49 980.935H1447.24L1441.24 964.75C1441.11 964.303 1440.89 963.767 1440.84 963.454C1440.8 963.722 1440.62 964.303 1440.44 964.75ZM1459.42 992.246H1456.74V959.653H1459.82V974.81C1461.34 971.635 1464.29 970.026 1467.96 970.026C1474.26 970.026 1477.93 974.944 1477.93 981.471C1477.93 987.954 1474.17 992.783 1467.87 992.783C1464.25 992.783 1461.25 991.173 1459.73 987.82L1459.42 992.246ZM1459.87 981.382C1459.87 986.389 1462.64 989.966 1467.38 989.966C1472.07 989.966 1474.8 986.389 1474.8 981.382C1474.8 976.419 1472.07 972.798 1467.38 972.798C1462.64 972.798 1459.87 976.419 1459.87 981.382ZM1479.23 986.166H1482.18C1482.18 988.669 1484.05 990.234 1487.09 990.234C1490.45 990.234 1492.41 988.804 1492.41 986.479C1492.41 984.69 1491.52 983.662 1488.97 983.036L1485.26 982.097C1481.51 981.158 1479.67 979.191 1479.67 976.24C1479.67 972.44 1482.85 970.026 1487.5 970.026C1492.06 970.026 1495.01 972.53 1495.14 976.553H1492.15C1492.06 974.05 1490.31 972.574 1487.41 972.574C1484.37 972.574 1482.67 973.871 1482.67 976.196C1482.67 977.85 1483.83 979.012 1486.2 979.594L1489.91 980.532C1493.67 981.471 1495.37 983.215 1495.37 986.345C1495.37 990.234 1492.06 992.783 1487.14 992.783C1482.27 992.783 1479.23 990.189 1479.23 986.166ZM1503.62 992.246H1500.58V973.2H1496.24V970.607H1500.58V963.767H1503.62V970.607H1507.95V973.2H1503.62V992.246ZM1521.49 970.339V973.111H1519.8C1515.82 973.111 1513.27 975.793 1513.27 979.906V992.246H1510.18V970.607H1513.09L1513.31 973.96C1514.16 971.635 1516.44 970.115 1519.48 970.115C1520.15 970.115 1520.73 970.16 1521.49 970.339ZM1529.15 992.783C1524.54 992.783 1521.82 990.189 1521.82 986.389C1521.82 982.41 1524.86 979.906 1529.91 979.504L1537.06 978.923V978.208C1537.06 973.96 1534.51 972.619 1531.34 972.619C1527.58 972.619 1525.35 974.318 1525.35 977.224H1522.53C1522.53 972.842 1526.11 970.026 1531.43 970.026C1536.44 970.026 1540.1 972.53 1540.1 978.252V992.246H1537.51L1537.11 988.446C1535.77 991.173 1532.81 992.783 1529.15 992.783ZM1529.86 990.279C1534.42 990.279 1537.06 987.105 1537.06 982.41V981.248L1530.67 981.74C1526.6 982.097 1524.95 983.886 1524.95 986.3C1524.95 988.938 1526.91 990.279 1529.86 990.279ZM1542.98 981.471C1542.98 974.676 1547.14 970.026 1553.45 970.026C1558.45 970.026 1562.12 972.932 1562.97 977.403H1559.88C1559.08 974.407 1556.49 972.753 1553.49 972.753C1549.11 972.753 1546.02 976.106 1546.02 981.427C1546.02 986.568 1548.89 990.011 1553.27 990.011C1556.49 990.011 1559.08 988.222 1559.93 985.45H1563.06C1562.03 989.877 1558.19 992.783 1553.27 992.783C1547.14 992.783 1542.98 988.267 1542.98 981.471ZM1570.91 992.246H1567.87V973.2H1563.53V970.607H1567.87V963.767H1570.91V970.607H1575.24V973.2H1570.91V992.246ZM1578.99 964.661C1577.74 964.661 1576.71 963.632 1576.71 962.381C1576.71 961.129 1577.74 960.056 1578.99 960.056C1580.24 960.056 1581.32 961.129 1581.32 962.381C1581.32 963.632 1580.24 964.661 1578.99 964.661ZM1577.47 992.246V970.607H1580.56V992.246H1577.47ZM1583.68 981.427C1583.68 974.81 1588.33 970.026 1594.68 970.026C1601.03 970.026 1605.68 974.81 1605.68 981.427C1605.68 987.999 1601.03 992.783 1594.68 992.783C1588.33 992.783 1583.68 987.999 1583.68 981.427ZM1586.81 981.382C1586.81 986.479 1590.03 990.011 1594.68 990.011C1599.29 990.011 1602.55 986.479 1602.55 981.382C1602.55 976.374 1599.29 972.798 1594.68 972.798C1590.03 972.798 1586.81 976.374 1586.81 981.382ZM1611.91 992.246H1608.82V970.607H1611.51L1611.95 974.363C1613.38 971.591 1616.25 970.026 1619.38 970.026C1625.32 970.026 1627.78 973.558 1627.78 979.012V992.246H1624.7V979.683C1624.7 974.631 1622.42 972.842 1618.84 972.842C1614.41 972.842 1611.91 976.062 1611.91 980.935V992.246ZM1646.64 960.235V989.295H1661.35V992.246H1643.42V960.235H1646.64ZM1669.93 992.783C1665.32 992.783 1662.59 990.189 1662.59 986.389C1662.59 982.41 1665.63 979.906 1670.69 979.504L1677.84 978.923V978.208C1677.84 973.96 1675.29 972.619 1672.12 972.619C1668.36 972.619 1666.13 974.318 1666.13 977.224H1663.31C1663.31 972.842 1666.89 970.026 1672.21 970.026C1677.21 970.026 1680.88 972.53 1680.88 978.252V992.246H1678.29L1677.88 988.446C1676.54 991.173 1673.59 992.783 1669.93 992.783ZM1670.64 990.279C1675.2 990.279 1677.84 987.105 1677.84 982.41V981.248L1671.45 981.74C1667.38 982.097 1665.72 983.886 1665.72 986.3C1665.72 988.938 1667.69 990.279 1670.64 990.279ZM1682.61 1001.68V999.131H1684.98C1686.86 999.131 1688.74 998.997 1689.81 996.091L1690.75 993.543L1681.98 970.607H1685.25L1692.22 989.474L1699.06 970.607H1702.24L1692.31 997.209C1691.06 1000.61 1688.96 1001.99 1685.87 1001.99C1684.58 1001.99 1683.59 1001.9 1682.61 1001.68ZM1712.39 992.783C1706.04 992.783 1701.79 988.222 1701.79 981.427C1701.79 974.676 1706 970.026 1712.17 970.026C1718.02 970.026 1722 974.184 1722 980.309V981.829H1704.79C1705.01 987.105 1707.79 990.145 1712.44 990.145C1715.97 990.145 1718.25 988.625 1719.05 985.763H1722C1720.84 990.324 1717.49 992.783 1712.39 992.783ZM1712.17 972.664C1708.1 972.664 1705.42 975.346 1704.88 979.594H1718.92C1718.92 975.436 1716.24 972.664 1712.17 972.664ZM1736.46 970.339V973.111H1734.76C1730.78 973.111 1728.23 975.793 1728.23 979.906V992.246H1725.15V970.607H1728.05L1728.28 973.96C1729.13 971.635 1731.41 970.115 1734.45 970.115C1735.12 970.115 1735.7 970.16 1736.46 970.339Z" fill="#323131"/>
<path d="M178.65 302L217.95 190.25H239.85L279.15 302H260.25L251.7 276.95H206.25L197.55 302H178.65ZM211.35 261.2H246.3L226.5 202.7H231.45L211.35 261.2ZM284.757 302V220.85H300.957V236.75L299.007 234.65C301.007 229.55 304.207 225.7 308.607 223.1C313.007 220.4 318.107 219.05 323.907 219.05C329.907 219.05 335.207 220.35 339.807 222.95C344.407 225.55 348.007 229.15 350.607 233.75C353.207 238.35 354.507 243.65 354.507 249.65V302H337.707V254.15C337.707 250.05 336.957 246.6 335.457 243.8C333.957 240.9 331.807 238.7 329.007 237.2C326.307 235.6 323.207 234.8 319.707 234.8C316.207 234.8 313.057 235.6 310.257 237.2C307.557 238.7 305.457 240.9 303.957 243.8C302.457 246.7 301.707 250.15 301.707 254.15V302H284.757ZM366.648 302V220.85H382.848V236.75L380.898 234.65C382.898 229.55 386.098 225.7 390.498 223.1C394.898 220.4 399.998 219.05 405.798 219.05C411.798 219.05 417.098 220.35 421.698 222.95C426.298 225.55 429.898 229.15 432.498 233.75C435.098 238.35 436.398 243.65 436.398 249.65V302H419.598V254.15C419.598 250.05 418.848 246.6 417.348 243.8C415.848 240.9 413.698 238.7 410.898 237.2C408.198 235.6 405.098 234.8 401.598 234.8C398.098 234.8 394.948 235.6 392.148 237.2C389.448 238.7 387.348 240.9 385.848 243.8C384.348 246.7 383.598 250.15 383.598 254.15V302H366.648ZM487.689 303.8C479.889 303.8 472.739 301.95 466.239 298.25C459.839 294.55 454.739 289.5 450.939 283.1C447.139 276.7 445.239 269.45 445.239 261.35C445.239 253.15 447.139 245.9 450.939 239.6C454.739 233.2 459.839 228.2 466.239 224.6C472.639 220.9 479.789 219.05 487.689 219.05C495.689 219.05 502.839 220.9 509.139 224.6C515.539 228.2 520.589 233.2 524.289 239.6C528.089 245.9 529.989 253.15 529.989 261.35C529.989 269.55 528.089 276.85 524.289 283.25C520.489 289.65 515.389 294.7 508.989 298.4C502.589 302 495.489 303.8 487.689 303.8ZM487.689 288.05C492.489 288.05 496.739 286.9 500.439 284.6C504.139 282.3 507.039 279.15 509.139 275.15C511.339 271.05 512.439 266.45 512.439 261.35C512.439 256.25 511.339 251.7 509.139 247.7C507.039 243.7 504.139 240.55 500.439 238.25C496.739 235.95 492.489 234.8 487.689 234.8C482.989 234.8 478.739 235.95 474.939 238.25C471.239 240.55 468.289 243.7 466.089 247.7C463.989 251.7 462.939 256.25 462.939 261.35C462.939 266.45 463.989 271.05 466.089 275.15C468.289 279.15 471.239 282.3 474.939 284.6C478.739 286.9 482.989 288.05 487.689 288.05ZM569.487 303.8C563.387 303.8 558.037 302.45 553.437 299.75C548.837 296.95 545.237 293.1 542.637 288.2C540.137 283.2 538.887 277.45 538.887 270.95V220.85H555.837V269.45C555.837 273.15 556.587 276.4 558.087 279.2C559.587 282 561.687 284.2 564.387 285.8C567.087 287.3 570.187 288.05 573.687 288.05C577.287 288.05 580.437 287.25 583.137 285.65C585.837 284.05 587.937 281.8 589.437 278.9C591.037 276 591.837 272.6 591.837 268.7V220.85H608.637V302H592.587V286.1L594.387 288.2C592.487 293.2 589.337 297.05 584.937 299.75C580.537 302.45 575.387 303.8 569.487 303.8ZM622.427 302V220.85H638.627V236.75L636.677 234.65C638.677 229.55 641.877 225.7 646.277 223.1C650.677 220.4 655.777 219.05 661.577 219.05C667.577 219.05 672.877 220.35 677.477 222.95C682.077 225.55 685.677 229.15 688.277 233.75C690.877 238.35 692.177 243.65 692.177 249.65V302H675.377V254.15C675.377 250.05 674.627 246.6 673.127 243.8C671.627 240.9 669.477 238.7 666.677 237.2C663.977 235.6 660.877 234.8 657.377 234.8C653.877 234.8 650.727 235.6 647.927 237.2C645.227 238.7 643.127 240.9 641.627 243.8C640.127 246.7 639.377 250.15 639.377 254.15V302H622.427ZM742.868 303.8C734.768 303.8 727.568 301.95 721.268 298.25C715.068 294.45 710.118 289.35 706.418 282.95C702.818 276.55 701.018 269.3 701.018 261.2C701.018 253.2 702.818 246 706.418 239.6C710.018 233.2 714.968 228.2 721.268 224.6C727.568 220.9 734.768 219.05 742.868 219.05C748.368 219.05 753.518 220.05 758.318 222.05C763.118 223.95 767.268 226.6 770.768 230C774.368 233.4 777.018 237.35 778.718 241.85L763.868 248.75C762.168 244.55 759.418 241.2 755.618 238.7C751.918 236.1 747.668 234.8 742.868 234.8C738.268 234.8 734.118 235.95 730.418 238.25C726.818 240.45 723.968 243.6 721.868 247.7C719.768 251.7 718.718 256.25 718.718 261.35C718.718 266.45 719.768 271.05 721.868 275.15C723.968 279.15 726.818 282.3 730.418 284.6C734.118 286.9 738.268 288.05 742.868 288.05C747.768 288.05 752.018 286.8 755.618 284.3C759.318 281.7 762.068 278.25 763.868 273.95L778.718 281C777.118 285.3 774.518 289.2 770.918 292.7C767.418 296.1 763.268 298.8 758.468 300.8C753.668 302.8 748.468 303.8 742.868 303.8ZM789.285 302V220.85H806.235V302H789.285ZM789.285 209.75V190.25H806.235V209.75H789.285ZM820.052 302V220.85H836.252V236.75L834.302 234.65C836.302 229.55 839.502 225.7 843.902 223.1C848.302 220.4 853.402 219.05 859.202 219.05C865.202 219.05 870.502 220.35 875.102 222.95C879.702 225.55 883.302 229.15 885.902 233.75C888.502 238.35 889.802 243.65 889.802 249.65V302H873.002V254.15C873.002 250.05 872.252 246.6 870.752 243.8C869.252 240.9 867.102 238.7 864.302 237.2C861.602 235.6 858.502 234.8 855.002 234.8C851.502 234.8 848.352 235.6 845.552 237.2C842.852 238.7 840.752 240.9 839.252 243.8C837.752 246.7 837.002 250.15 837.002 254.15V302H820.052ZM941.093 335C935.193 335 929.743 334.05 924.743 332.15C919.743 330.25 915.443 327.6 911.843 324.2C908.243 320.9 905.543 317 903.743 312.5L919.343 306.05C920.743 309.85 923.293 313 926.993 315.5C930.793 318 935.443 319.25 940.943 319.25C945.243 319.25 949.093 318.4 952.493 316.7C955.893 315.1 958.593 312.7 960.593 309.5C962.593 306.4 963.593 302.65 963.593 298.25V279.95L966.593 283.4C963.793 288.6 959.893 292.55 954.893 295.25C949.993 297.95 944.443 299.3 938.243 299.3C930.743 299.3 923.993 297.55 917.993 294.05C911.993 290.55 907.243 285.75 903.743 279.65C900.343 273.55 898.643 266.7 898.643 259.1C898.643 251.4 900.343 244.55 903.743 238.55C907.243 232.55 911.943 227.8 917.843 224.3C923.743 220.8 930.493 219.05 938.093 219.05C944.293 219.05 949.793 220.4 954.593 223.1C959.493 225.7 963.493 229.5 966.593 234.5L964.343 238.7V220.85H980.393V298.25C980.393 305.25 978.693 311.5 975.293 317C971.993 322.6 967.393 327 961.493 330.2C955.593 333.4 948.793 335 941.093 335ZM940.193 283.55C944.693 283.55 948.693 282.5 952.193 280.4C955.693 278.2 958.443 275.3 960.443 271.7C962.543 268 963.593 263.85 963.593 259.25C963.593 254.65 962.543 250.5 960.443 246.8C958.343 243.1 955.543 240.2 952.043 238.1C948.543 235.9 944.593 234.8 940.193 234.8C935.593 234.8 931.493 235.9 927.893 238.1C924.293 240.2 921.443 243.1 919.343 246.8C917.343 250.4 916.343 254.55 916.343 259.25C916.343 263.75 917.343 267.85 919.343 271.55C921.443 275.25 924.293 278.2 927.893 280.4C931.493 282.5 935.593 283.55 940.193 283.55Z" fill="#FDB42B"/>
<path d="M219.32 620.16C209.84 620.16 201.02 618.42 192.86 614.94C184.82 611.46 177.8 606.66 171.8 600.54C165.92 594.3 161.3 586.98 157.94 578.58C154.58 570.18 152.9 560.94 152.9 550.86C152.9 540.9 154.52 531.72 157.76 523.32C161.12 514.8 165.8 507.48 171.8 501.36C177.8 495.12 184.82 490.32 192.86 486.96C200.9 483.48 209.72 481.74 219.32 481.74C228.8 481.74 237.26 483.36 244.7 486.6C252.26 489.84 258.62 494.1 263.78 499.38C268.94 504.54 272.66 510.18 274.94 516.3L255.86 525.3C252.98 518.1 248.36 512.28 242 507.84C235.76 503.28 228.2 501 219.32 501C210.44 501 202.58 503.1 195.74 507.3C188.9 511.5 183.56 517.32 179.72 524.76C176 532.2 174.14 540.9 174.14 550.86C174.14 560.82 176 569.58 179.72 577.14C183.56 584.58 188.9 590.4 195.74 594.6C202.58 598.68 210.44 600.72 219.32 600.72C228.2 600.72 235.76 598.5 242 594.06C248.36 589.62 252.98 583.8 255.86 576.6L274.94 585.6C272.66 591.6 268.94 597.24 263.78 602.52C258.62 607.8 252.26 612.06 244.7 615.3C237.26 618.54 228.8 620.16 219.32 620.16ZM315.004 620.16C308.404 620.16 302.584 619.02 297.544 616.74C292.624 614.34 288.784 611.1 286.024 607.02C283.264 602.82 281.884 597.9 281.884 592.26C281.884 586.98 283.024 582.24 285.304 578.04C287.704 573.84 291.364 570.3 296.284 567.42C301.204 564.54 307.384 562.5 314.824 561.3L348.664 555.72V571.74L318.784 576.96C313.384 577.92 309.424 579.66 306.904 582.18C304.384 584.58 303.124 587.7 303.124 591.54C303.124 595.26 304.504 598.32 307.264 600.72C310.144 603 313.804 604.14 318.244 604.14C323.764 604.14 328.564 602.94 332.644 600.54C336.844 598.14 340.084 594.96 342.364 591C344.644 586.92 345.784 582.42 345.784 577.5V552.48C345.784 547.68 343.984 543.78 340.384 540.78C336.904 537.66 332.224 536.1 326.344 536.1C320.944 536.1 316.204 537.54 312.124 540.42C308.164 543.18 305.224 546.78 303.304 551.22L286.384 542.76C288.184 537.96 291.124 533.76 295.204 530.16C299.284 526.44 304.024 523.56 309.424 521.52C314.944 519.48 320.764 518.46 326.884 518.46C334.564 518.46 341.344 519.9 347.224 522.78C353.224 525.66 357.844 529.68 361.084 534.84C364.444 539.88 366.124 545.76 366.124 552.48V618H346.684V600.36L350.824 600.9C348.544 604.86 345.604 608.28 342.004 611.16C338.524 614.04 334.504 616.26 329.944 617.82C325.504 619.38 320.524 620.16 315.004 620.16ZM423.069 619.08C412.869 619.08 404.949 616.2 399.309 610.44C393.669 604.68 390.849 596.58 390.849 586.14V538.98H373.749V520.62H376.449C381.009 520.62 384.549 519.3 387.069 516.66C389.589 514.02 390.849 510.42 390.849 505.86V498.3H411.189V520.62H433.329V538.98H411.189V585.24C411.189 588.6 411.729 591.48 412.809 593.88C413.889 596.16 415.629 597.96 418.029 599.28C420.429 600.48 423.549 601.08 427.389 601.08C428.349 601.08 429.429 601.02 430.629 600.9C431.829 600.78 432.969 600.66 434.049 600.54V618C432.369 618.24 430.509 618.48 428.469 618.72C426.429 618.96 424.629 619.08 423.069 619.08ZM474.979 620.16C468.379 620.16 462.559 619.02 457.519 616.74C452.599 614.34 448.759 611.1 445.999 607.02C443.239 602.82 441.859 597.9 441.859 592.26C441.859 586.98 442.999 582.24 445.279 578.04C447.679 573.84 451.339 570.3 456.259 567.42C461.179 564.54 467.359 562.5 474.799 561.3L508.639 555.72V571.74L478.759 576.96C473.359 577.92 469.399 579.66 466.879 582.18C464.359 584.58 463.099 587.7 463.099 591.54C463.099 595.26 464.479 598.32 467.239 600.72C470.119 603 473.779 604.14 478.219 604.14C483.739 604.14 488.539 602.94 492.619 600.54C496.819 598.14 500.059 594.96 502.339 591C504.619 586.92 505.759 582.42 505.759 577.5V552.48C505.759 547.68 503.959 543.78 500.359 540.78C496.879 537.66 492.199 536.1 486.319 536.1C480.919 536.1 476.179 537.54 472.099 540.42C468.139 543.18 465.199 546.78 463.279 551.22L446.359 542.76C448.159 537.96 451.099 533.76 455.179 530.16C459.259 526.44 463.999 523.56 469.399 521.52C474.919 519.48 480.739 518.46 486.859 518.46C494.539 518.46 501.319 519.9 507.199 522.78C513.199 525.66 517.819 529.68 521.059 534.84C524.419 539.88 526.099 545.76 526.099 552.48V618H506.659V600.36L510.799 600.9C508.519 604.86 505.579 608.28 501.979 611.16C498.499 614.04 494.479 616.26 489.919 617.82C485.479 619.38 480.499 620.16 474.979 620.16ZM542.682 618V481.74H563.022V618H542.682ZM588.243 657.6C585.843 657.6 583.443 657.36 581.043 656.88C578.763 656.52 576.663 655.92 574.743 655.08V637.62C576.183 637.98 577.923 638.28 579.963 638.52C582.003 638.88 583.983 639.06 585.903 639.06C591.543 639.06 595.683 637.8 598.323 635.28C601.083 632.88 603.543 629.16 605.703 624.12L612.183 609.36L611.823 626.46L569.703 520.62H591.483L622.623 601.8H615.243L646.203 520.62H668.163L625.143 628.62C622.863 634.38 619.983 639.42 616.503 643.74C613.143 648.18 609.123 651.6 604.443 654C599.883 656.4 594.483 657.6 588.243 657.6ZM710.883 620.16C700.923 620.16 692.163 617.7 684.603 612.78C677.163 607.86 671.943 601.26 668.943 592.98L684.603 585.6C687.243 591.12 690.843 595.5 695.403 598.74C700.083 601.98 705.243 603.6 710.883 603.6C715.683 603.6 719.583 602.52 722.583 600.36C725.583 598.2 727.083 595.26 727.083 591.54C727.083 589.14 726.423 587.22 725.103 585.78C723.783 584.22 722.103 582.96 720.063 582C718.143 581.04 716.163 580.32 714.123 579.84L698.823 575.52C690.423 573.12 684.123 569.52 679.923 564.72C675.843 559.8 673.803 554.1 673.803 547.62C673.803 541.74 675.303 536.64 678.303 532.32C681.303 527.88 685.443 524.46 690.723 522.06C696.003 519.66 701.943 518.46 708.543 518.46C717.423 518.46 725.343 520.68 732.303 525.12C739.263 529.44 744.183 535.5 747.063 543.3L731.403 550.68C729.483 546 726.423 542.28 722.223 539.52C718.143 536.76 713.523 535.38 708.363 535.38C703.923 535.38 700.383 536.46 697.743 538.62C695.103 540.66 693.783 543.36 693.783 546.72C693.783 549 694.383 550.92 695.583 552.48C696.783 553.92 698.343 555.12 700.263 556.08C702.183 556.92 704.163 557.64 706.203 558.24L722.043 562.92C730.083 565.2 736.263 568.8 740.583 573.72C744.903 578.52 747.063 584.28 747.063 591C747.063 596.76 745.503 601.86 742.383 606.3C739.383 610.62 735.183 614.04 729.783 616.56C724.383 618.96 718.083 620.16 710.883 620.16ZM759.792 618V520.62H780.132V618H759.792ZM759.792 507.3V483.9H780.132V507.3H759.792ZM832.714 620.16C822.754 620.16 813.994 617.7 806.434 612.78C798.994 607.86 793.774 601.26 790.774 592.98L806.434 585.6C809.074 591.12 812.674 595.5 817.234 598.74C821.914 601.98 827.074 603.6 832.714 603.6C837.514 603.6 841.414 602.52 844.414 600.36C847.414 598.2 848.914 595.26 848.914 591.54C848.914 589.14 848.254 587.22 846.934 585.78C845.614 584.22 843.934 582.96 841.894 582C839.974 581.04 837.994 580.32 835.954 579.84L820.654 575.52C812.254 573.12 805.954 569.52 801.754 564.72C797.674 559.8 795.634 554.1 795.634 547.62C795.634 541.74 797.134 536.64 800.134 532.32C803.134 527.88 807.274 524.46 812.554 522.06C817.834 519.66 823.774 518.46 830.374 518.46C839.254 518.46 847.174 520.68 854.134 525.12C861.094 529.44 866.014 535.5 868.894 543.3L853.234 550.68C851.314 546 848.254 542.28 844.054 539.52C839.974 536.76 835.354 535.38 830.194 535.38C825.754 535.38 822.214 536.46 819.574 538.62C816.934 540.66 815.614 543.36 815.614 546.72C815.614 549 816.214 550.92 817.414 552.48C818.614 553.92 820.174 555.12 822.094 556.08C824.014 556.92 825.994 557.64 828.034 558.24L843.874 562.92C851.914 565.2 858.094 568.8 862.414 573.72C866.734 578.52 868.894 584.28 868.894 591C868.894 596.76 867.334 601.86 864.214 606.3C861.214 610.62 857.014 614.04 851.614 616.56C846.214 618.96 839.914 620.16 832.714 620.16ZM970.328 620.16C960.848 620.16 952.028 618.42 943.868 614.94C935.828 611.46 928.808 606.66 922.808 600.54C916.928 594.3 912.308 586.98 908.948 578.58C905.588 570.18 903.908 560.94 903.908 550.86C903.908 540.9 905.528 531.72 908.768 523.32C912.128 514.8 916.808 507.48 922.808 501.36C928.808 495.12 935.828 490.32 943.868 486.96C951.908 483.48 960.728 481.74 970.328 481.74C979.808 481.74 988.268 483.36 995.708 486.6C1003.27 489.84 1009.63 494.1 1014.79 499.38C1019.95 504.54 1023.67 510.18 1025.95 516.3L1006.87 525.3C1003.99 518.1 999.368 512.28 993.008 507.84C986.768 503.28 979.208 501 970.328 501C961.448 501 953.588 503.1 946.748 507.3C939.908 511.5 934.568 517.32 930.728 524.76C927.008 532.2 925.148 540.9 925.148 550.86C925.148 560.82 927.008 569.58 930.728 577.14C934.568 584.58 939.908 590.4 946.748 594.6C953.588 598.68 961.448 600.72 970.328 600.72C979.208 600.72 986.768 598.5 993.008 594.06C999.368 589.62 1003.99 583.8 1006.87 576.6L1025.95 585.6C1023.67 591.6 1019.95 597.24 1014.79 602.52C1009.63 607.8 1003.27 612.06 995.708 615.3C988.268 618.54 979.808 620.16 970.328 620.16ZM1083.83 620.16C1074.47 620.16 1065.89 617.94 1058.09 613.5C1050.41 609.06 1044.29 603 1039.73 595.32C1035.17 587.64 1032.89 578.94 1032.89 569.22C1032.89 559.38 1035.17 550.68 1039.73 543.12C1044.29 535.44 1050.41 529.44 1058.09 525.12C1065.77 520.68 1074.35 518.46 1083.83 518.46C1093.43 518.46 1102.01 520.68 1109.57 525.12C1117.25 529.44 1123.31 535.44 1127.75 543.12C1132.31 550.68 1134.59 559.38 1134.59 569.22C1134.59 579.06 1132.31 587.82 1127.75 595.5C1123.19 603.18 1117.07 609.24 1109.39 613.68C1101.71 618 1093.19 620.16 1083.83 620.16ZM1083.83 601.26C1089.59 601.26 1094.69 599.88 1099.13 597.12C1103.57 594.36 1107.05 590.58 1109.57 585.78C1112.21 580.86 1113.53 575.34 1113.53 569.22C1113.53 563.1 1112.21 557.64 1109.57 552.84C1107.05 548.04 1103.57 544.26 1099.13 541.5C1094.69 538.74 1089.59 537.36 1083.83 537.36C1078.19 537.36 1073.09 538.74 1068.53 541.5C1064.09 544.26 1060.55 548.04 1057.91 552.84C1055.39 557.64 1054.13 563.1 1054.13 569.22C1054.13 575.34 1055.39 580.86 1057.91 585.78C1060.55 590.58 1064.09 594.36 1068.53 597.12C1073.09 599.88 1078.19 601.26 1083.83 601.26ZM1147.25 618V520.62H1166.69V540.24L1164.89 537.36C1167.05 531 1170.53 526.44 1175.33 523.68C1180.13 520.8 1185.89 519.36 1192.61 519.36H1198.55V537.9H1190.09C1183.37 537.9 1177.91 540 1173.71 544.2C1169.63 548.28 1167.59 554.16 1167.59 561.84V618H1147.25ZM1250.98 620.16C1241.26 620.16 1232.62 617.94 1225.06 613.5C1217.62 608.94 1211.8 602.82 1207.6 595.14C1203.4 587.34 1201.3 578.64 1201.3 569.04C1201.3 559.2 1203.4 550.5 1207.6 542.94C1211.92 535.38 1217.68 529.44 1224.88 525.12C1232.08 520.68 1240.24 518.46 1249.36 518.46C1256.68 518.46 1263.22 519.72 1268.98 522.24C1274.74 524.76 1279.6 528.24 1283.56 532.68C1287.52 537 1290.52 541.98 1292.56 547.62C1294.72 553.26 1295.8 559.26 1295.8 565.62C1295.8 567.18 1295.74 568.8 1295.62 570.48C1295.5 572.16 1295.26 573.72 1294.9 575.16H1217.32V558.96H1283.38L1273.66 566.34C1274.86 560.46 1274.44 555.24 1272.4 550.68C1270.48 546 1267.48 542.34 1263.4 539.7C1259.44 536.94 1254.76 535.56 1249.36 535.56C1243.96 535.56 1239.16 536.94 1234.96 539.7C1230.76 542.34 1227.52 546.18 1225.24 551.22C1222.96 556.14 1222.06 562.14 1222.54 569.22C1221.94 575.82 1222.84 581.58 1225.24 586.5C1227.76 591.42 1231.24 595.26 1235.68 598.02C1240.24 600.78 1245.4 602.16 1251.16 602.16C1257.04 602.16 1262.02 600.84 1266.1 598.2C1270.3 595.56 1273.6 592.14 1276 587.94L1292.56 596.04C1290.64 600.6 1287.64 604.74 1283.56 608.46C1279.6 612.06 1274.8 614.94 1269.16 617.1C1263.64 619.14 1257.58 620.16 1250.98 620.16ZM1360.98 618L1322.82 520.62H1344.96L1374.3 600H1366.2L1395.54 520.62H1417.86L1379.52 618H1360.98ZM1477.22 620.16C1466.54 620.16 1457.18 617.28 1449.14 611.52C1441.1 605.64 1434.8 597.54 1430.24 587.22C1425.8 576.78 1423.58 564.66 1423.58 550.86C1423.58 536.94 1425.8 524.82 1430.24 514.5C1434.8 504.18 1441.04 496.14 1448.96 490.38C1457 484.62 1466.36 481.74 1477.04 481.74C1487.72 481.74 1497.02 484.62 1504.94 490.38C1512.98 496.14 1519.22 504.24 1523.66 514.68C1528.22 525 1530.5 537.06 1530.5 550.86C1530.5 564.66 1528.28 576.78 1523.84 587.22C1519.4 597.54 1513.16 605.64 1505.12 611.52C1497.2 617.28 1487.9 620.16 1477.22 620.16ZM1477.22 600.72C1483.82 600.72 1489.52 598.68 1494.32 594.6C1499.12 590.52 1502.84 584.76 1505.48 577.32C1508.12 569.88 1509.44 561.06 1509.44 550.86C1509.44 540.66 1508.12 531.84 1505.48 524.4C1502.84 516.96 1499.12 511.2 1494.32 507.12C1489.52 503.04 1483.76 501 1477.04 501C1470.44 501 1464.74 503.04 1459.94 507.12C1455.14 511.2 1451.42 516.96 1448.78 524.4C1446.14 531.84 1444.82 540.66 1444.82 550.86C1444.82 560.94 1446.14 569.76 1448.78 577.32C1451.42 584.76 1455.14 590.52 1459.94 594.6C1464.86 598.68 1470.62 600.72 1477.22 600.72Z" fill="#FDB42B"/>
</g>
<defs>
<clipPath id="clip0_35_2">
<rect width="1920" height="1080" fill="white"/>
</clipPath>
</defs>
</svg>
