<svg width="629" height="418" viewBox="0 0 629 418" fill="none" xmlns="http://www.w3.org/2000/svg">
<path d="M45.5073 395.237L45.5073 37.9225" stroke="black" stroke-opacity="0.2" stroke-width="0.842723"/>
<path d="M170.23 395.237L170.23 37.9225" stroke="black" stroke-opacity="0.2" stroke-width="0.842723"/>
<path d="M294.111 395.237L294.111 37.9225" stroke="black" stroke-opacity="0.2" stroke-width="0.842723"/>
<path d="M418.833 395.237L418.833 37.9225" stroke="black" stroke-opacity="0.2" stroke-width="0.842723"/>
<path d="M543.557 395.237L543.557 37.9225" stroke="black" stroke-opacity="0.2" stroke-width="0.842723"/>
<rect width="51.4061" height="455.07" transform="translate(455.071 254.502) rotate(90)" fill="#8F2828"/>
<path d="M28.6235 288.829H25.7087L25.7087 272.184H28.6235L28.6235 279.061H36.0014L36.0014 272.184H38.9161L38.9161 288.829H36.0014L36.0014 281.77H28.6235L28.6235 288.829ZM46.321 289.125C42.9737 289.125 40.6282 286.689 40.6282 283.205C40.6282 279.675 42.9281 277.239 46.23 277.239C49.6001 277.239 51.7406 279.493 51.7406 283L51.7406 283.843L43.2697 283.865C43.4746 285.846 44.5221 286.848 46.3666 286.848C47.8923 286.848 48.8942 286.256 49.213 285.186H51.7862C51.308 287.645 49.2585 289.125 46.321 289.125ZM46.2527 279.516C44.6132 279.516 43.6113 280.404 43.338 282.089H48.9853C48.9853 280.541 47.915 279.516 46.2527 279.516ZM56.2894 289.125C53.8984 289.125 52.441 287.736 52.441 285.619C52.441 283.547 53.9439 282.249 56.6082 282.044L59.9783 281.793L59.9783 281.543C59.9783 280.017 59.0675 279.402 57.6556 279.402C56.0161 279.402 55.1053 280.085 55.1053 281.269H52.737C52.737 278.833 54.7409 277.239 57.7923 277.239C60.8208 277.239 62.6881 278.878 62.6881 281.998L62.6881 288.829H60.2516L60.0466 287.167C59.5684 288.328 58.0428 289.125 56.2894 289.125ZM57.2002 287.031C58.9081 287.031 60.0011 286.006 60.0011 284.275L60.0011 283.683L57.6556 283.865C55.925 284.025 55.2647 284.594 55.2647 285.505C55.2647 286.53 55.9478 287.031 57.2002 287.031ZM67.3073 288.829H64.552L64.552 271.888H67.3073L67.3073 288.829ZM73.1362 288.829H70.3581L70.3581 279.903H68.1948L68.1948 277.58H70.3581L70.3581 274.074H73.1362L73.1362 277.58H75.3223L75.3223 279.903H73.1362L73.1362 288.829ZM78.9166 288.829H76.1385L76.1385 271.888H78.9393L78.9393 279.038C79.6453 277.945 80.966 277.239 82.5828 277.239C85.3609 277.239 86.8182 278.992 86.8182 281.907L86.8182 288.829H84.0401L84.0401 282.567C84.0401 280.677 83.1065 279.766 81.6947 279.766C79.9413 279.766 78.9166 280.996 78.9166 282.681L78.9166 288.829ZM97.1882 272.184L97.1882 288.829H94.2735L94.2735 272.184H97.1882ZM102.335 288.829H99.5573L99.5573 277.58H102.131L102.358 279.038C103.064 277.899 104.43 277.239 105.956 277.239C108.78 277.239 110.237 278.992 110.237 281.907L110.237 288.829H107.459L107.459 282.567C107.459 280.677 106.525 279.766 105.091 279.766C103.383 279.766 102.335 280.951 102.335 282.772L102.335 288.829ZM111.057 285.414H113.699C113.721 286.393 114.45 287.008 115.725 287.008C117.023 287.008 117.729 286.484 117.729 285.664C117.729 285.095 117.433 284.685 116.431 284.457L114.404 283.979C112.378 283.524 111.399 282.567 111.399 280.768C111.399 278.56 113.266 277.239 115.862 277.239C118.389 277.239 120.097 278.696 120.12 280.882H117.479C117.456 279.926 116.818 279.311 115.748 279.311C114.655 279.311 114.017 279.812 114.017 280.655C114.017 281.292 114.518 281.702 115.475 281.93L117.501 282.408C119.391 282.841 120.348 283.706 120.348 285.437C120.348 287.714 118.412 289.125 115.634 289.125C112.833 289.125 111.057 287.623 111.057 285.414ZM129.181 277.58H131.959L131.959 288.829H129.385L129.181 287.327C128.497 288.397 127.04 289.125 125.537 289.125C122.941 289.125 121.415 287.372 121.415 284.617L121.415 277.58H124.194L124.194 283.638C124.194 285.778 125.036 286.643 126.585 286.643C128.338 286.643 129.181 285.619 129.181 283.478L129.181 277.58ZM140.976 277.535L140.976 280.108H139.952C137.948 280.108 136.695 281.178 136.695 283.364L136.695 288.829H133.917L133.917 277.603H136.536L136.695 279.243C137.173 278.127 138.244 277.375 139.747 277.375C140.134 277.375 140.521 277.421 140.976 277.535ZM144.848 289.125C142.457 289.125 141 287.736 141 285.619C141 283.547 142.503 282.249 145.167 282.044L148.537 281.793L148.537 281.543C148.537 280.017 147.627 279.402 146.215 279.402C144.575 279.402 143.664 280.085 143.664 281.269H141.296C141.296 278.833 143.3 277.239 146.351 277.239C149.38 277.239 151.247 278.878 151.247 281.998L151.247 288.829H148.811L148.606 287.167C148.127 288.328 146.602 289.125 144.848 289.125ZM145.759 287.031C147.467 287.031 148.56 286.006 148.56 284.275L148.56 283.683L146.215 283.865C144.484 284.025 143.824 284.594 143.824 285.505C143.824 286.53 144.507 287.031 145.759 287.031ZM155.844 288.829H153.065L153.065 277.58H155.639L155.866 279.038C156.572 277.899 157.939 277.239 159.464 277.239C162.288 277.239 163.745 278.992 163.745 281.907L163.745 288.829H160.967L160.967 282.567C160.967 280.677 160.033 279.766 158.599 279.766C156.891 279.766 155.844 280.951 155.844 282.772L155.844 288.829ZM164.904 283.182C164.904 279.698 167.203 277.239 170.528 277.239C173.602 277.239 175.697 278.947 175.993 281.657H173.215C172.896 280.381 171.963 279.721 170.642 279.721C168.866 279.721 167.682 281.064 167.682 283.182C167.682 285.3 168.775 286.621 170.551 286.621C171.94 286.621 172.919 285.938 173.215 284.708H176.016C175.674 287.327 173.488 289.125 170.551 289.125C167.135 289.125 164.904 286.757 164.904 283.182ZM182.205 289.125C178.858 289.125 176.512 286.689 176.512 283.205C176.512 279.675 178.812 277.239 182.114 277.239C185.484 277.239 187.625 279.493 187.625 283L187.625 283.843L179.154 283.865C179.359 285.846 180.406 286.848 182.251 286.848C183.776 286.848 184.778 286.256 185.097 285.186H187.67C187.192 287.645 185.143 289.125 182.205 289.125ZM182.137 279.516C180.497 279.516 179.495 280.404 179.222 282.089H184.87C184.87 280.541 183.799 279.516 182.137 279.516ZM191.032 280.814C190.03 280.814 189.188 279.994 189.188 279.015C189.188 278.013 190.03 277.193 191.032 277.193C192.034 277.193 192.877 278.013 192.877 279.015C192.877 279.994 192.034 280.814 191.032 280.814ZM191.032 289.103C190.03 289.103 189.188 288.283 189.188 287.304C189.188 286.302 190.03 285.482 191.032 285.482C192.034 285.482 192.877 286.302 192.877 287.304C192.877 288.283 192.034 289.103 191.032 289.103Z" fill="#4B0000"/>
<path d="M205.456 284.389C205.456 282.385 206.663 280.791 208.599 280.131C206.959 279.47 206.025 278.127 206.025 276.442C206.025 273.937 208.166 272.229 211.286 272.229C214.383 272.229 216.455 273.937 216.455 276.465C216.455 278.172 215.544 279.516 213.927 280.131C215.817 280.723 217.07 282.362 217.07 284.412C217.07 287.19 214.724 289.103 211.263 289.103C207.802 289.103 205.456 287.19 205.456 284.389ZM207.574 276.487C207.574 278.286 209.031 279.493 211.263 279.493C213.472 279.493 214.906 278.332 214.906 276.533C214.906 274.78 213.472 273.687 211.263 273.687C209.031 273.687 207.574 274.78 207.574 276.487ZM207.073 284.252C207.073 286.279 208.758 287.623 211.286 287.623C213.768 287.623 215.453 286.279 215.453 284.252C215.453 282.249 213.813 280.951 211.24 280.951C208.713 280.951 207.073 282.249 207.073 284.252ZM223.908 289.103C220.629 289.103 218.534 287.053 218.534 283.843H220.174C220.174 286.188 221.609 287.6 223.931 287.6C226.391 287.6 227.985 285.96 227.985 283.547C227.985 281.269 226.504 279.47 223.931 279.47C222.428 279.47 221.062 280.154 220.174 281.133L218.876 280.723L220.834 272.525H228.713L228.713 274.028H222.018L220.789 279.152C221.7 278.423 222.884 278.013 224.159 278.013C227.552 278.013 229.647 280.45 229.647 283.501C229.647 286.78 227.324 289.103 223.908 289.103ZM238.756 276.26C238.756 278.605 237.093 280.29 234.771 280.29C232.448 280.29 230.763 278.605 230.763 276.26C230.763 273.914 232.448 272.206 234.771 272.206C237.093 272.206 238.756 273.914 238.756 276.26ZM247.022 272.525L234.634 288.829H232.994L245.359 272.525H247.022ZM237.389 276.26C237.389 274.643 236.319 273.527 234.771 273.527C233.199 273.527 232.129 274.643 232.129 276.26C232.129 277.854 233.222 278.992 234.771 278.992C236.296 278.992 237.389 277.854 237.389 276.26ZM249.276 285.095C249.276 287.44 247.614 289.125 245.291 289.125C242.968 289.125 241.283 287.44 241.283 285.095C241.283 282.75 242.968 281.042 245.291 281.042C247.614 281.042 249.276 282.75 249.276 285.095ZM247.91 285.095C247.91 283.478 246.839 282.362 245.291 282.362C243.72 282.362 242.649 283.478 242.649 285.095C242.649 286.689 243.742 287.805 245.291 287.805C246.817 287.805 247.91 286.689 247.91 285.095ZM251.284 280.45H256.271L256.271 275.463H257.683L257.683 280.45H262.669L262.669 281.861H257.683L257.683 286.871H256.271L256.271 281.861H251.284L251.284 280.45ZM269.854 283.342C269.854 279.88 271.972 277.512 275.182 277.512C277.733 277.512 279.6 278.992 280.033 281.269H278.461C278.052 279.744 276.731 278.901 275.205 278.901C272.974 278.901 271.402 280.609 271.402 283.319C271.402 285.938 272.86 287.691 275.091 287.691C276.731 287.691 278.052 286.78 278.484 285.368H280.078C279.554 287.623 277.596 289.103 275.091 289.103C271.972 289.103 269.854 286.803 269.854 283.342ZM280.773 283.319C280.773 279.949 283.142 277.512 286.375 277.512C289.609 277.512 291.977 279.949 291.977 283.319C291.977 286.666 289.609 289.103 286.375 289.103C283.142 289.103 280.773 286.666 280.773 283.319ZM282.367 283.296C282.367 285.892 284.007 287.691 286.375 287.691C288.721 287.691 290.383 285.892 290.383 283.296C290.383 280.746 288.721 278.924 286.375 278.924C284.007 278.924 282.367 280.746 282.367 283.296ZM296.164 288.829L291.655 277.808H293.34L296.187 284.913C296.483 285.71 296.779 286.461 296.984 287.19C297.189 286.438 297.485 285.71 297.803 284.913L300.695 277.808H302.312L297.735 288.829H296.164ZM307.387 289.103C304.153 289.103 301.99 286.78 301.99 283.319C301.99 279.88 304.13 277.512 307.273 277.512C310.256 277.512 312.282 279.63 312.282 282.75L312.282 283.524H303.516C303.629 286.211 305.041 287.759 307.409 287.759C309.208 287.759 310.37 286.985 310.78 285.528H312.282C311.69 287.85 309.983 289.103 307.387 289.103ZM307.273 278.856C305.201 278.856 303.834 280.222 303.561 282.385H310.711C310.711 280.267 309.345 278.856 307.273 278.856ZM319.645 277.672L319.645 279.083H318.78C316.753 279.083 315.455 280.45 315.455 282.545L315.455 288.829H313.884L313.884 277.808H315.364L315.478 279.516C315.91 278.332 317.072 277.558 318.62 277.558C318.962 277.558 319.258 277.58 319.645 277.672ZM325.023 289.103C321.789 289.103 319.626 286.78 319.626 283.319C319.626 279.88 321.767 277.512 324.909 277.512C327.892 277.512 329.919 279.63 329.919 282.75L329.919 283.524H321.152C321.266 286.211 322.677 287.759 325.046 287.759C326.845 287.759 328.006 286.985 328.416 285.528H329.919C329.327 287.85 327.619 289.103 325.023 289.103ZM324.909 278.856C322.837 278.856 321.471 280.222 321.197 282.385H328.347C328.347 280.267 326.981 278.856 324.909 278.856ZM335.847 289.103C332.636 289.103 330.746 286.643 330.746 283.342C330.746 280.017 332.636 277.512 335.915 277.512C337.737 277.512 339.194 278.309 339.968 279.903L339.968 272.229H341.539L341.539 288.829H340.173L340.014 286.575C339.239 288.283 337.691 289.103 335.847 289.103ZM336.12 287.668C338.534 287.668 339.945 285.846 339.945 283.296C339.945 280.768 338.534 278.924 336.12 278.924C333.729 278.924 332.34 280.768 332.34 283.296C332.34 285.846 333.729 287.668 336.12 287.668Z" fill="white"/>
<rect width="51.4061" height="484.566" transform="translate(484.565 185.399) rotate(90)" fill="#8F2828"/>
<path d="M27.1433 218.829H24.1147L30.1264 202.184H33.1094L39.121 218.829H36.0469L34.7034 214.981H28.4868L27.1433 218.829ZM31.2422 207.148L29.3521 212.522H33.8609L31.9481 207.148C31.8114 206.715 31.652 206.214 31.6065 205.873C31.5382 206.191 31.4016 206.692 31.2422 207.148ZM47.0935 207.58H49.8716L49.8716 218.829H47.2984L47.0935 217.327C46.4103 218.397 44.953 219.125 43.4501 219.125C40.8541 219.125 39.3285 217.372 39.3285 214.617L39.3285 207.58H42.1066L42.1066 213.638C42.1066 215.778 42.9491 216.643 44.4976 216.643C46.2509 216.643 47.0935 215.619 47.0935 213.478L47.0935 207.58ZM55.6557 218.829H52.8776L52.8776 209.903H50.7143L50.7143 207.58H52.8776L52.8776 204.074H55.6557L55.6557 207.58H57.8417L57.8417 209.903H55.6557L55.6557 218.829ZM57.8864 213.182C57.8864 209.675 60.414 207.262 63.898 207.262C67.382 207.262 69.9096 209.675 69.9096 213.182C69.9096 216.689 67.382 219.103 63.898 219.103C60.414 219.103 57.8864 216.689 57.8864 213.182ZM60.6645 213.182C60.6645 215.232 61.9852 216.621 63.898 216.621C65.8108 216.621 67.1315 215.232 67.1315 213.182C67.1315 211.133 65.8108 209.744 63.898 209.744C61.9852 209.744 60.6645 211.133 60.6645 213.182ZM79.7522 202.184L79.7522 218.829H76.8374L76.8374 202.184H79.7522ZM84.8994 218.829H82.1213L82.1213 207.58H84.6944L84.9221 209.038C85.6281 207.899 86.9943 207.239 88.52 207.239C91.3437 207.239 92.801 208.992 92.801 211.907L92.801 218.829H90.0229L90.0229 212.567C90.0229 210.677 89.0893 209.766 87.6547 209.766C85.9469 209.766 84.8994 210.951 84.8994 212.772L84.8994 218.829ZM93.621 215.414H96.2624C96.2852 216.393 97.0139 217.008 98.2891 217.008C99.587 217.008 100.293 216.484 100.293 215.664C100.293 215.095 99.9969 214.685 98.995 214.457L96.9683 213.979C94.9417 213.524 93.9625 212.567 93.9625 210.768C93.9625 208.56 95.8298 207.239 98.4257 207.239C100.953 207.239 102.661 208.696 102.684 210.882H100.042C100.02 209.926 99.3821 209.311 98.3119 209.311C97.2188 209.311 96.5812 209.812 96.5812 210.655C96.5812 211.292 97.0822 211.702 98.0386 211.93L100.065 212.408C101.955 212.841 102.912 213.706 102.912 215.437C102.912 217.714 100.976 219.125 98.198 219.125C95.3971 219.125 93.621 217.623 93.621 215.414ZM111.744 207.58H114.523L114.523 218.829H111.949L111.744 217.327C111.061 218.397 109.604 219.125 108.101 219.125C105.505 219.125 103.979 217.372 103.979 214.617L103.979 207.58H106.758L106.758 213.638C106.758 215.778 107.6 216.643 109.149 216.643C110.902 216.643 111.744 215.619 111.744 213.478L111.744 207.58ZM123.54 207.535L123.54 210.108H122.515C120.512 210.108 119.259 211.178 119.259 213.364L119.259 218.829H116.481L116.481 207.603H119.1L119.259 209.243C119.737 208.127 120.808 207.375 122.311 207.375C122.698 207.375 123.085 207.421 123.54 207.535ZM127.412 219.125C125.021 219.125 123.564 217.736 123.564 215.619C123.564 213.547 125.067 212.249 127.731 212.044L131.101 211.793L131.101 211.543C131.101 210.017 130.19 209.402 128.779 209.402C127.139 209.402 126.228 210.085 126.228 211.269H123.86C123.86 208.833 125.864 207.239 128.915 207.239C131.944 207.239 133.811 208.878 133.811 211.998L133.811 218.829H131.375L131.17 217.167C130.691 218.328 129.166 219.125 127.412 219.125ZM128.323 217.031C130.031 217.031 131.124 216.006 131.124 214.275L131.124 213.683L128.779 213.865C127.048 214.025 126.388 214.594 126.388 215.505C126.388 216.53 127.071 217.031 128.323 217.031ZM138.408 218.829H135.629L135.629 207.58H138.203L138.43 209.038C139.136 207.899 140.502 207.239 142.028 207.239C144.852 207.239 146.309 208.992 146.309 211.907L146.309 218.829H143.531L143.531 212.567C143.531 210.677 142.597 209.766 141.163 209.766C139.455 209.766 138.408 210.951 138.408 212.772L138.408 218.829ZM147.467 213.182C147.467 209.698 149.767 207.239 153.092 207.239C156.166 207.239 158.261 208.947 158.557 211.657H155.779C155.46 210.381 154.527 209.721 153.206 209.721C151.43 209.721 150.246 211.064 150.246 213.182C150.246 215.3 151.339 216.621 153.115 216.621C154.504 216.621 155.483 215.938 155.779 214.708H158.58C158.238 217.327 156.052 219.125 153.115 219.125C149.699 219.125 147.467 216.757 147.467 213.182ZM164.769 219.125C161.422 219.125 159.076 216.689 159.076 213.205C159.076 209.675 161.376 207.239 164.678 207.239C168.048 207.239 170.189 209.493 170.189 213L170.189 213.843L161.718 213.865C161.923 215.846 162.97 216.848 164.815 216.848C166.34 216.848 167.342 216.256 167.661 215.186H170.234C169.756 217.645 167.707 219.125 164.769 219.125ZM164.701 209.516C163.061 209.516 162.059 210.404 161.786 212.089H167.433C167.433 210.541 166.363 209.516 164.701 209.516ZM173.596 210.814C172.594 210.814 171.752 209.994 171.752 209.015C171.752 208.013 172.594 207.193 173.596 207.193C174.598 207.193 175.441 208.013 175.441 209.015C175.441 209.994 174.598 210.814 173.596 210.814ZM173.596 219.103C172.594 219.103 171.752 218.283 171.752 217.304C171.752 216.302 172.594 215.482 173.596 215.482C174.598 215.482 175.441 216.302 175.441 217.304C175.441 218.283 174.598 219.103 173.596 219.103Z" fill="#4B0000"/>
<path d="M197.493 213.319L193.417 218.829H191.504L195.785 213.137C195.034 213.547 194.328 213.683 193.554 213.683C190.161 213.683 187.906 211.201 187.906 208.013C187.906 204.688 190.434 202.229 193.69 202.229C196.969 202.229 199.542 204.757 199.542 208.036C199.542 209.926 199.041 211.247 197.493 213.319ZM197.903 208.013C197.903 205.531 196.172 203.732 193.69 203.732C191.276 203.732 189.546 205.531 189.546 208.013C189.546 210.472 191.276 212.249 193.69 212.249C196.172 212.249 197.903 210.472 197.903 208.013ZM200.921 210.677C200.921 205.622 203.403 202.206 207.456 202.206C211.487 202.206 213.969 205.622 213.969 210.677C213.969 215.755 211.532 219.125 207.456 219.125C203.358 219.125 200.921 215.755 200.921 210.677ZM202.538 210.677C202.538 214.913 204.337 217.645 207.456 217.645C210.576 217.645 212.375 214.913 212.375 210.677C212.375 206.419 210.576 203.709 207.456 203.709C204.337 203.709 202.538 206.419 202.538 210.677ZM223.388 206.26C223.388 208.605 221.725 210.29 219.403 210.29C217.08 210.29 215.395 208.605 215.395 206.26C215.395 203.914 217.08 202.206 219.403 202.206C221.725 202.206 223.388 203.914 223.388 206.26ZM231.654 202.525L219.266 218.829H217.626L229.991 202.525H231.654ZM222.021 206.26C222.021 204.643 220.951 203.527 219.403 203.527C217.831 203.527 216.761 204.643 216.761 206.26C216.761 207.854 217.854 208.992 219.403 208.992C220.928 208.992 222.021 207.854 222.021 206.26ZM233.908 215.095C233.908 217.44 232.246 219.125 229.923 219.125C227.6 219.125 225.915 217.44 225.915 215.095C225.915 212.75 227.6 211.042 229.923 211.042C232.246 211.042 233.908 212.75 233.908 215.095ZM232.542 215.095C232.542 213.478 231.471 212.362 229.923 212.362C228.352 212.362 227.281 213.478 227.281 215.095C227.281 216.689 228.374 217.805 229.923 217.805C231.449 217.805 232.542 216.689 232.542 215.095ZM235.916 210.45H240.903L240.903 205.463H242.315L242.315 210.45H247.302L247.302 211.861H242.315L242.315 216.871H240.903L240.903 211.861H235.916L235.916 210.45ZM254.486 213.342C254.486 209.88 256.604 207.512 259.814 207.512C262.365 207.512 264.232 208.992 264.665 211.269H263.093C262.684 209.744 261.363 208.901 259.837 208.901C257.606 208.901 256.034 210.609 256.034 213.319C256.034 215.938 257.492 217.691 259.723 217.691C261.363 217.691 262.684 216.78 263.116 215.368H264.71C264.186 217.623 262.228 219.103 259.723 219.103C256.604 219.103 254.486 216.803 254.486 213.342ZM265.405 213.319C265.405 209.949 267.774 207.512 271.007 207.512C274.241 207.512 276.609 209.949 276.609 213.319C276.609 216.666 274.241 219.103 271.007 219.103C267.774 219.103 265.405 216.666 265.405 213.319ZM266.999 213.296C266.999 215.892 268.639 217.691 271.007 217.691C273.353 217.691 275.015 215.892 275.015 213.296C275.015 210.746 273.353 208.924 271.007 208.924C268.639 208.924 266.999 210.746 266.999 213.296ZM280.796 218.829L276.287 207.808H277.972L280.819 214.913C281.115 215.71 281.411 216.461 281.616 217.19C281.821 216.438 282.117 215.71 282.436 214.913L285.327 207.808H286.944L282.367 218.829H280.796ZM292.019 219.103C288.785 219.103 286.622 216.78 286.622 213.319C286.622 209.88 288.762 207.512 291.905 207.512C294.888 207.512 296.915 209.63 296.915 212.75L296.915 213.524H288.148C288.261 216.211 289.673 217.759 292.041 217.759C293.84 217.759 295.002 216.985 295.412 215.528H296.915C296.322 217.85 294.615 219.103 292.019 219.103ZM291.905 208.856C289.833 208.856 288.466 210.222 288.193 212.385H295.343C295.343 210.267 293.977 208.856 291.905 208.856ZM304.277 207.672L304.277 209.083H303.412C301.385 209.083 300.087 210.45 300.087 212.545L300.087 218.829H298.516L298.516 207.808H299.996L300.11 209.516C300.542 208.332 301.704 207.558 303.252 207.558C303.594 207.558 303.89 207.58 304.277 207.672ZM309.655 219.103C306.421 219.103 304.258 216.78 304.258 213.319C304.258 209.88 306.399 207.512 309.541 207.512C312.524 207.512 314.551 209.63 314.551 212.75L314.551 213.524H305.784C305.898 216.211 307.309 217.759 309.678 217.759C311.477 217.759 312.638 216.985 313.048 215.528H314.551C313.959 217.85 312.251 219.103 309.655 219.103ZM309.541 208.856C307.469 208.856 306.103 210.222 305.829 212.385H312.979C312.979 210.267 311.613 208.856 309.541 208.856ZM320.479 219.103C317.268 219.103 315.378 216.643 315.378 213.342C315.378 210.017 317.268 207.512 320.547 207.512C322.369 207.512 323.826 208.309 324.6 209.903L324.6 202.229H326.171L326.171 218.829H324.805L324.646 216.575C323.871 218.283 322.323 219.103 320.479 219.103ZM320.752 217.668C323.166 217.668 324.577 215.846 324.577 213.296C324.577 210.768 323.166 208.924 320.752 208.924C318.361 208.924 316.972 210.768 316.972 213.296C316.972 215.846 318.361 217.668 320.752 217.668Z" fill="white"/>
<rect width="51.4061" height="5.05633" transform="translate(5.05664 323.606) rotate(90)" fill="#8F2828"/>
<path d="M25.5091 347.309H22.9371L22.9371 338.861H25.4855C28.0339 338.861 29.7328 340.56 29.7328 343.085C29.7328 345.61 28.0457 347.309 25.5091 347.309ZM25.4501 339.64H23.7865L23.7865 346.53H25.4737C27.5383 346.53 28.8597 345.185 28.8597 343.085C28.8597 340.973 27.5383 339.64 25.4501 339.64ZM33.0133 347.45C31.338 347.45 30.2172 346.247 30.2172 344.453C30.2172 342.672 31.3262 341.445 32.9543 341.445C34.4999 341.445 35.5499 342.542 35.5499 344.158L35.5499 344.56H31.0076C31.0666 345.952 31.7981 346.754 33.0251 346.754C33.9572 346.754 34.5589 346.353 34.7712 345.598H35.5499C35.2432 346.801 34.3583 347.45 33.0133 347.45ZM32.9543 342.141C31.8807 342.141 31.1728 342.849 31.0312 343.97H34.7358C34.7358 342.872 34.028 342.141 32.9543 342.141ZM40.8629 343.592H37.406L37.406 347.309H36.5565L36.5565 338.861H41.5353L41.5353 339.64H37.406L37.406 342.825H40.8629L40.8629 343.592ZM42.7148 340.029C42.3844 340.029 42.1131 339.758 42.1131 339.427C42.1131 339.097 42.3844 338.814 42.7148 338.814C43.0451 338.814 43.3283 339.097 43.3283 339.427C43.3283 339.758 43.0451 340.029 42.7148 340.029ZM42.3137 347.309L42.3137 341.598H43.1277L43.1277 347.309H42.3137ZM45.1675 342.92C44.7664 342.92 44.4242 342.578 44.4242 342.188C44.4242 341.787 44.7664 341.457 45.1675 341.457C45.5686 341.457 45.9108 341.787 45.9108 342.188C45.9108 342.578 45.5686 342.92 45.1675 342.92ZM45.1675 347.438C44.7664 347.438 44.4242 347.108 44.4242 346.719C44.4242 346.318 44.7664 345.975 45.1675 345.975C45.5686 345.975 45.9108 346.318 45.9108 346.719C45.9108 347.108 45.5686 347.438 45.1675 347.438ZM22.4888 356.049C22.4888 353.407 23.8573 351.613 26.0046 351.613C28.1401 351.613 29.5086 353.407 29.5086 356.049C29.5086 358.704 28.199 360.462 26.0046 360.462C23.7983 360.462 22.4888 358.704 22.4888 356.049ZM23.6332 356.049C23.6332 358.15 24.5062 359.424 26.0046 359.424C27.503 359.424 28.3642 358.15 28.3642 356.049C28.3642 353.926 27.503 352.652 26.0046 352.652C24.5062 352.652 23.6332 353.926 23.6332 356.049ZM30.7633 360.45C30.3032 360.45 29.9138 360.073 29.9138 359.624C29.9138 359.164 30.3032 358.787 30.7633 358.787C31.2116 358.787 31.601 359.164 31.601 359.624C31.601 360.073 31.2116 360.45 30.7633 360.45ZM35.1154 360.45C33.3693 360.45 32.2367 359.341 32.2367 357.642H33.3811C33.3811 358.739 34.0536 359.412 35.139 359.412C36.2952 359.412 37.0385 358.645 37.0385 357.489C37.0385 356.392 36.3424 355.578 35.1508 355.578C34.4311 355.578 33.7704 355.92 33.3811 356.403L32.4018 356.156L33.4401 351.779H37.711L37.711 352.84H34.2778L33.7114 355.106C34.1598 354.763 34.7261 354.587 35.3632 354.587C37.0975 354.587 38.2183 355.802 38.2183 357.442C38.2183 359.211 36.9559 360.45 35.1154 360.45ZM42.9708 353.796C42.9708 355.058 42.0742 355.967 40.8118 355.967C39.5612 355.967 38.6645 355.058 38.6645 353.796C38.6645 352.522 39.5612 351.613 40.8118 351.613C42.0742 351.613 42.9708 352.522 42.9708 353.796ZM47.4659 351.79L40.9888 360.309H39.8561L46.3333 351.79H47.4659ZM42.0624 353.796C42.0624 353.029 41.5551 352.498 40.8118 352.498C40.0803 352.498 39.573 353.029 39.573 353.796C39.573 354.551 40.0803 355.082 40.8118 355.082C41.5433 355.082 42.0624 354.551 42.0624 353.796ZM48.6811 358.291C48.6811 359.554 47.7727 360.462 46.5221 360.462C45.2715 360.462 44.363 359.554 44.363 358.291C44.363 357.017 45.2715 356.12 46.5221 356.12C47.7727 356.12 48.6811 357.017 48.6811 358.291ZM47.7609 358.291C47.7609 357.524 47.2654 356.993 46.5221 356.993C45.7906 356.993 45.2833 357.524 45.2833 358.291C45.2833 359.046 45.7906 359.577 46.5221 359.577C47.2536 359.577 47.7609 359.046 47.7609 358.291ZM51.8676 357.43C51.8676 355.625 53.012 354.374 54.6991 354.374C56.1503 354.374 57.1649 355.2 57.3655 356.486H56.2565C56.0677 355.755 55.4778 355.365 54.7345 355.365C53.6845 355.365 52.9648 356.167 52.9648 357.418C52.9648 358.657 53.6373 359.459 54.6873 359.459C55.4778 359.459 56.0677 359.046 56.2683 358.362H57.3773C57.1531 359.613 56.0795 360.45 54.6873 360.45C52.9884 360.45 51.8676 359.247 51.8676 357.43ZM57.6979 357.418C57.6979 355.637 58.9721 354.386 60.7065 354.386C62.429 354.386 63.7032 355.637 63.7032 357.418C63.7032 359.2 62.429 360.45 60.7065 360.45C58.9721 360.45 57.6979 359.2 57.6979 357.418ZM58.8188 357.418C58.8188 358.621 59.5856 359.459 60.7065 359.459C61.8155 359.459 62.5942 358.621 62.5942 357.418C62.5942 356.215 61.8155 355.377 60.7065 355.377C59.5856 355.377 58.8188 356.215 58.8188 357.418ZM65.8103 360.309L63.486 354.539H64.6658L65.9282 357.76C66.1288 358.303 66.294 358.787 66.3884 359.141C66.4828 358.763 66.6715 358.268 66.8721 357.76L68.1581 354.539H69.3143L66.9075 360.309H65.8103ZM71.9492 360.45C70.2502 360.45 69.0822 359.223 69.0822 357.43C69.0822 355.625 70.2266 354.374 71.902 354.374C73.5419 354.374 74.6155 355.507 74.6155 357.217L74.6155 357.63L70.1558 357.642C70.2384 358.857 70.8755 359.53 71.9728 359.53C72.834 359.53 73.4003 359.176 73.5891 358.515H74.6273C74.3442 359.754 73.3767 360.45 71.9492 360.45ZM71.902 355.306C70.9345 355.306 70.321 355.884 70.1794 356.899H73.5065C73.5065 355.943 72.8812 355.306 71.902 355.306ZM78.6858 354.492L78.6858 355.507H78.1903C77.1402 355.507 76.4913 356.144 76.4913 357.253L76.4913 360.309H75.3823L75.3823 354.551H76.4206L76.4913 355.424C76.7273 354.822 77.3054 354.421 78.0959 354.421C78.2965 354.421 78.4616 354.445 78.6858 354.492ZM81.5361 360.45C79.8371 360.45 78.6691 359.223 78.6691 357.43C78.6691 355.625 79.8135 354.374 81.4889 354.374C83.1288 354.374 84.2024 355.507 84.2024 357.217L84.2024 357.63L79.7427 357.642C79.8253 358.857 80.4624 359.53 81.5597 359.53C82.4209 359.53 82.9872 359.176 83.176 358.515H84.2142C83.9311 359.754 82.9636 360.45 81.5361 360.45ZM81.4889 355.306C80.5214 355.306 79.9079 355.884 79.7663 356.899H83.0934C83.0934 355.943 82.4681 355.306 81.4889 355.306ZM87.2816 360.45C85.6063 360.45 84.5917 359.2 84.5917 357.442C84.5917 355.672 85.6181 354.374 87.3288 354.374C88.2137 354.374 88.957 354.763 89.3463 355.471L89.3463 351.625H90.4435L90.4435 360.309H89.4525L89.3581 359.259C88.9806 360.049 88.2019 360.45 87.2816 360.45ZM87.5058 359.447C88.6384 359.447 89.3345 358.61 89.3345 357.406C89.3345 356.226 88.6384 355.377 87.5058 355.377C86.3732 355.377 85.7125 356.226 85.7125 357.406C85.7125 358.598 86.3732 359.447 87.5058 359.447Z" fill="#8F2828"/>
<rect width="51.4061" height="519.117" transform="translate(519.118 116.296) rotate(90)" fill="#8F2828"/>
<path d="M24.2514 137.327L24.2514 134.64H36.9122L36.9122 137.327H32.0392L32.0392 151.286H29.1244L29.1244 137.327H24.2514ZM43.5221 139.991L43.5221 142.564H42.4974C40.4935 142.564 39.2411 143.635 39.2411 145.821L39.2411 151.286H36.463L36.463 140.06H39.0817L39.2411 141.699C39.7193 140.583 40.7896 139.832 42.2925 139.832C42.6796 139.832 43.0667 139.877 43.5221 139.991ZM47.3943 151.582C45.0033 151.582 43.546 150.193 43.546 148.075C43.546 146.003 45.0489 144.705 47.7131 144.5L51.0833 144.25L51.0833 143.999C51.0833 142.473 50.1724 141.859 48.7606 141.859C47.1211 141.859 46.2102 142.542 46.2102 143.726H43.842C43.842 141.289 45.8459 139.695 48.8972 139.695C51.9258 139.695 53.7931 141.335 53.7931 144.454L53.7931 151.286H51.3565L51.1516 149.624C50.6734 150.785 49.1477 151.582 47.3943 151.582ZM48.3052 149.487C50.013 149.487 51.106 148.462 51.106 146.732L51.106 146.14L48.7606 146.322C47.03 146.481 46.3696 147.05 46.3696 147.961C46.3696 148.986 47.0527 149.487 48.3052 149.487ZM60.234 151.582C56.9777 151.582 54.951 149.191 54.951 145.707C54.951 142.2 57.0004 139.695 60.3934 139.695C61.9646 139.695 63.3536 140.356 64.0595 141.471L64.0595 134.344H66.8149L66.8149 151.286H64.2645L64.0823 149.532C63.3992 150.83 61.9418 151.582 60.234 151.582ZM60.8488 149.032C62.7843 149.032 64.0368 147.642 64.0368 145.616C64.0368 143.589 62.7843 142.177 60.8488 142.177C58.9132 142.177 57.7291 143.612 57.7291 145.616C57.7291 147.62 58.9132 149.032 60.8488 149.032ZM78.3176 144.477H72.1238L72.1238 151.286H69.2091L69.2091 134.64H79.5017L79.5017 137.327H72.1238L72.1238 141.859H78.3176L78.3176 144.477ZM82.1974 137.783C81.241 137.783 80.4896 137.031 80.4896 136.097C80.4896 135.164 81.241 134.435 82.1974 134.435C83.1083 134.435 83.8597 135.164 83.8597 136.097C83.8597 137.031 83.1083 137.783 82.1974 137.783ZM80.8084 151.286L80.8084 140.037H83.5865L83.5865 151.286H80.8084ZM94.0061 151.286H91.1825L91.1825 134.64H94.0061L99.3802 147.893L104.754 134.64H107.623L107.623 151.286H104.8L104.8 146.162C104.8 142.815 104.8 141.836 104.959 140.652L100.724 151.286H98.0366L93.824 140.674C93.9834 141.676 94.0061 143.248 94.0061 145.32L94.0061 151.286ZM113.334 151.582C110.943 151.582 109.486 150.193 109.486 148.075C109.486 146.003 110.989 144.705 113.653 144.5L117.023 144.25L117.023 143.999C117.023 142.473 116.112 141.859 114.7 141.859C113.061 141.859 112.15 142.542 112.15 143.726H109.782C109.782 141.289 111.786 139.695 114.837 139.695C117.866 139.695 119.733 141.335 119.733 144.454L119.733 151.286H117.296L117.091 149.624C116.613 150.785 115.088 151.582 113.334 151.582ZM114.245 149.487C115.953 149.487 117.046 148.462 117.046 146.732L117.046 146.14L114.7 146.322C112.97 146.481 112.309 147.05 112.309 147.961C112.309 148.986 112.993 149.487 114.245 149.487ZM128.61 139.991L128.61 142.564H127.586C125.582 142.564 124.329 143.635 124.329 145.821L124.329 151.286H121.551L121.551 140.06H124.17L124.329 141.699C124.808 140.583 125.878 139.832 127.381 139.832C127.768 139.832 128.155 139.877 128.61 139.991ZM132.381 151.286H129.625L129.625 134.344H132.381L132.381 144.751L136.753 140.037H140.237L135.956 144.5L140.146 151.286H136.958L134.02 146.549L132.381 148.257L132.381 151.286ZM145.443 151.582C142.096 151.582 139.75 149.145 139.75 145.661C139.75 142.132 142.05 139.695 145.352 139.695C148.722 139.695 150.863 141.95 150.863 145.456L150.863 146.299L142.392 146.322C142.597 148.303 143.644 149.305 145.489 149.305C147.014 149.305 148.016 148.713 148.335 147.642H150.908C150.43 150.102 148.38 151.582 145.443 151.582ZM145.375 141.972C143.735 141.972 142.733 142.861 142.46 144.546H148.107C148.107 142.997 147.037 141.972 145.375 141.972ZM155.889 151.286H153.111L153.111 142.36H150.948L150.948 140.037H153.111L153.111 136.53H155.889L155.889 140.037H158.076L158.076 142.36H155.889L155.889 151.286ZM158.026 147.87H160.668C160.691 148.849 161.419 149.464 162.695 149.464C163.993 149.464 164.698 148.94 164.698 148.121C164.698 147.551 164.402 147.142 163.4 146.914L161.374 146.436C159.347 145.98 158.368 145.024 158.368 143.225C158.368 141.016 160.235 139.695 162.831 139.695C165.359 139.695 167.067 141.153 167.089 143.339H164.448C164.425 142.382 163.788 141.767 162.717 141.767C161.624 141.767 160.987 142.268 160.987 143.111C160.987 143.749 161.488 144.158 162.444 144.386L164.471 144.864C166.361 145.297 167.317 146.162 167.317 147.893C167.317 150.17 165.382 151.582 162.603 151.582C159.803 151.582 158.026 150.079 158.026 147.87ZM170.616 143.27C169.615 143.27 168.772 142.451 168.772 141.471C168.772 140.47 169.615 139.65 170.616 139.65C171.618 139.65 172.461 140.47 172.461 141.471C172.461 142.451 171.618 143.27 170.616 143.27ZM170.616 151.559C169.615 151.559 168.772 150.739 168.772 149.76C168.772 148.758 169.615 147.939 170.616 147.939C171.618 147.939 172.461 148.758 172.461 149.76C172.461 150.739 171.618 151.559 170.616 151.559Z" fill="#4B0000"/>
<path d="M185.218 146.845C185.218 144.842 186.425 143.248 188.361 142.587C186.721 141.927 185.787 140.583 185.787 138.898C185.787 136.393 187.928 134.686 191.048 134.686C194.145 134.686 196.217 136.393 196.217 138.921C196.217 140.629 195.306 141.972 193.689 142.587C195.579 143.179 196.832 144.819 196.832 146.868C196.832 149.646 194.486 151.559 191.025 151.559C187.564 151.559 185.218 149.646 185.218 146.845ZM187.336 138.944C187.336 140.743 188.793 141.95 191.025 141.95C193.234 141.95 194.668 140.788 194.668 138.989C194.668 137.236 193.234 136.143 191.025 136.143C188.793 136.143 187.336 137.236 187.336 138.944ZM186.835 146.709C186.835 148.736 188.52 150.079 191.048 150.079C193.53 150.079 195.215 148.736 195.215 146.709C195.215 144.705 193.575 143.407 191.002 143.407C188.475 143.407 186.835 144.705 186.835 146.709ZM198.341 143.134C198.341 138.079 200.823 134.663 204.877 134.663C208.907 134.663 211.389 138.079 211.389 143.134C211.389 148.212 208.953 151.582 204.877 151.582C200.778 151.582 198.341 148.212 198.341 143.134ZM199.958 143.134C199.958 147.369 201.757 150.102 204.877 150.102C207.996 150.102 209.795 147.369 209.795 143.134C209.795 138.876 207.996 136.166 204.877 136.166C201.757 136.166 199.958 138.876 199.958 143.134ZM213.18 146.003L213.18 144.591H219.783L219.783 146.003H213.18ZM230.874 145.775L226.798 151.286H224.885L229.166 145.593C228.415 146.003 227.709 146.14 226.935 146.14C223.542 146.14 221.288 143.657 221.288 140.47C221.288 137.145 223.815 134.686 227.072 134.686C230.351 134.686 232.924 137.213 232.924 140.492C232.924 142.382 232.423 143.703 230.874 145.775ZM231.284 140.47C231.284 137.987 229.554 136.189 227.072 136.189C224.658 136.189 222.927 137.987 222.927 140.47C222.927 142.929 224.658 144.705 227.072 144.705C229.554 144.705 231.284 142.929 231.284 140.47ZM239.609 151.559C236.33 151.559 234.235 149.51 234.235 146.299H235.875C235.875 148.644 237.309 150.056 239.632 150.056C242.091 150.056 243.685 148.417 243.685 146.003C243.685 143.726 242.205 141.927 239.632 141.927C238.129 141.927 236.763 142.61 235.875 143.589L234.577 143.179L236.535 134.982H244.414L244.414 136.485H237.719L236.489 141.608C237.4 140.879 238.584 140.47 239.86 140.47C243.252 140.47 245.347 142.906 245.347 145.957C245.347 149.236 243.025 151.559 239.609 151.559ZM254.456 138.716C254.456 141.062 252.794 142.747 250.471 142.747C248.149 142.747 246.463 141.062 246.463 138.716C246.463 136.371 248.149 134.663 250.471 134.663C252.794 134.663 254.456 136.371 254.456 138.716ZM262.722 134.982L250.335 151.286H248.695L261.06 134.982H262.722ZM253.09 138.716C253.09 137.099 252.02 135.984 250.471 135.984C248.9 135.984 247.83 137.099 247.83 138.716C247.83 140.31 248.923 141.449 250.471 141.449C251.997 141.449 253.09 140.31 253.09 138.716ZM264.977 147.551C264.977 149.897 263.314 151.582 260.992 151.582C258.669 151.582 256.984 149.897 256.984 147.551C256.984 145.206 258.669 143.498 260.992 143.498C263.314 143.498 264.977 145.206 264.977 147.551ZM263.61 147.551C263.61 145.935 262.54 144.819 260.992 144.819C259.42 144.819 258.35 145.935 258.35 147.551C258.35 149.145 259.443 150.261 260.992 150.261C262.517 150.261 263.61 149.145 263.61 147.551ZM271.433 145.798C271.433 142.337 273.55 139.969 276.761 139.969C279.312 139.969 281.179 141.449 281.611 143.726H280.04C279.63 142.2 278.31 141.358 276.784 141.358C274.552 141.358 272.981 143.065 272.981 145.775C272.981 148.394 274.439 150.147 276.67 150.147C278.31 150.147 279.63 149.236 280.063 147.825H281.657C281.133 150.079 279.175 151.559 276.67 151.559C273.55 151.559 271.433 149.259 271.433 145.798ZM282.352 145.775C282.352 142.405 284.72 139.969 287.954 139.969C291.188 139.969 293.556 142.405 293.556 145.775C293.556 149.123 291.188 151.559 287.954 151.559C284.72 151.559 282.352 149.123 282.352 145.775ZM283.946 145.752C283.946 148.348 285.586 150.147 287.954 150.147C290.299 150.147 291.962 148.348 291.962 145.752C291.962 143.202 290.299 141.38 287.954 141.38C285.586 141.38 283.946 143.202 283.946 145.752ZM297.743 151.286L293.234 140.265H294.919L297.766 147.369C298.062 148.166 298.358 148.918 298.563 149.646C298.768 148.895 299.064 148.166 299.382 147.369L302.274 140.265H303.891L299.314 151.286H297.743ZM308.966 151.559C305.732 151.559 303.569 149.236 303.569 145.775C303.569 142.337 305.709 139.969 308.852 139.969C311.835 139.969 313.861 142.086 313.861 145.206L313.861 145.98H305.094C305.208 148.667 306.62 150.216 308.988 150.216C310.787 150.216 311.949 149.441 312.358 147.984H313.861C313.269 150.307 311.561 151.559 308.966 151.559ZM308.852 141.312C306.779 141.312 305.413 142.678 305.14 144.842H312.29C312.29 142.724 310.924 141.312 308.852 141.312ZM321.224 140.128L321.224 141.54H320.358C318.332 141.54 317.034 142.906 317.034 145.001L317.034 151.286H315.463L315.463 140.265H316.943L317.057 141.972C317.489 140.788 318.651 140.014 320.199 140.014C320.541 140.014 320.837 140.037 321.224 140.128ZM326.602 151.559C323.368 151.559 321.205 149.236 321.205 145.775C321.205 142.337 323.345 139.969 326.488 139.969C329.471 139.969 331.498 142.086 331.498 145.206L331.498 145.98H322.731C322.844 148.667 324.256 150.216 326.624 150.216C328.423 150.216 329.585 149.441 329.995 147.984H331.498C330.905 150.307 329.198 151.559 326.602 151.559ZM326.488 141.312C324.416 141.312 323.049 142.678 322.776 144.842H329.926C329.926 142.724 328.56 141.312 326.488 141.312ZM337.425 151.559C334.215 151.559 332.325 149.1 332.325 145.798C332.325 142.473 334.215 139.969 337.494 139.969C339.315 139.969 340.773 140.766 341.547 142.36L341.547 134.686H343.118L343.118 151.286H341.752L341.593 149.032C340.818 150.739 339.27 151.559 337.425 151.559ZM337.699 150.125C340.112 150.125 341.524 148.303 341.524 145.752C341.524 143.225 340.112 141.38 337.699 141.38C335.308 141.38 333.919 143.225 333.919 145.752C333.919 148.303 335.308 150.125 337.699 150.125Z" fill="white"/>
<path d="M0.842576 35.3943L0.842554 395.237L617.716 395.237" stroke="#8F2828" stroke-width="1.68545"/>
<path d="M42.5704 415.488L36.5887 415.5V414.367L39.4085 411.984C40.5765 410.993 40.9658 410.427 40.9658 409.601C40.9658 408.622 40.4349 408.067 39.5265 408.067C38.5826 408.067 37.9927 408.728 37.9809 409.837H36.4825C36.4943 407.949 37.6978 406.722 39.5265 406.722C41.367 406.722 42.5114 407.772 42.5114 409.518C42.5114 410.722 41.8507 411.63 40.5411 412.751L38.9837 414.084H42.5704V415.488ZM43.0289 411.205C43.0289 408.527 44.4683 406.71 46.6746 406.71C48.8808 406.71 50.332 408.527 50.332 411.205C50.332 413.872 48.9634 415.653 46.6746 415.653C44.3857 415.653 43.0289 413.872 43.0289 411.205ZM44.5155 411.205C44.5155 413.199 45.3178 414.32 46.6746 414.32C48.0431 414.32 48.8454 413.199 48.8454 411.205C48.8454 409.164 48.0431 408.044 46.6746 408.044C45.3178 408.044 44.5155 409.164 44.5155 411.205ZM55.2763 408.976C55.2763 410.309 54.3325 411.241 53.0229 411.241C51.7133 411.241 50.7694 410.309 50.7694 408.976C50.7694 407.654 51.7133 406.71 53.0229 406.71C54.3325 406.71 55.2763 407.654 55.2763 408.976ZM60.0074 406.887L53.4594 415.5H52.02L58.568 406.887H60.0074ZM54.1319 408.976C54.1319 408.291 53.6836 407.819 53.0229 407.819C52.3622 407.819 51.9256 408.291 51.9256 408.976C51.9256 409.66 52.374 410.132 53.0229 410.132C53.6836 410.132 54.1319 409.66 54.1319 408.976ZM61.2698 413.388C61.2698 414.71 60.3377 415.653 59.0281 415.653C57.7067 415.653 56.7747 414.71 56.7747 413.388C56.7747 412.067 57.7067 411.123 59.0281 411.123C60.3377 411.123 61.2698 412.067 61.2698 413.388ZM60.1253 413.388C60.1253 412.704 59.677 412.232 59.0281 412.232C58.3674 412.232 57.9191 412.704 57.9191 413.388C57.9191 414.072 58.3674 414.544 59.0281 414.544C59.677 414.544 60.1253 414.072 60.1253 413.388Z" fill="#121212"/>
<path d="M165.641 413.86H164.591V415.5H163.164V413.86H158.786V412.539L162.692 406.876H164.591V412.539H165.641V413.86ZM160.391 412.539H163.164V408.504L160.391 412.539ZM166.119 411.205C166.119 408.527 167.558 406.71 169.764 406.71C171.971 406.71 173.422 408.527 173.422 411.205C173.422 413.872 172.053 415.653 169.764 415.653C167.476 415.653 166.119 413.872 166.119 411.205ZM167.605 411.205C167.605 413.199 168.408 414.32 169.764 414.32C171.133 414.32 171.935 413.199 171.935 411.205C171.935 409.164 171.133 408.044 169.764 408.044C168.408 408.044 167.605 409.164 167.605 411.205ZM178.366 408.976C178.366 410.309 177.422 411.241 176.113 411.241C174.803 411.241 173.859 410.309 173.859 408.976C173.859 407.654 174.803 406.71 176.113 406.71C177.422 406.71 178.366 407.654 178.366 408.976ZM183.097 406.887L176.549 415.5H175.11L181.658 406.887H183.097ZM177.222 408.976C177.222 408.291 176.773 407.819 176.113 407.819C175.452 407.819 175.016 408.291 175.016 408.976C175.016 409.66 175.464 410.132 176.113 410.132C176.773 410.132 177.222 409.66 177.222 408.976ZM184.36 413.388C184.36 414.71 183.428 415.653 182.118 415.653C180.797 415.653 179.865 414.71 179.865 413.388C179.865 412.067 180.797 411.123 182.118 411.123C183.428 411.123 184.36 412.067 184.36 413.388ZM183.215 413.388C183.215 412.704 182.767 412.232 182.118 412.232C181.457 412.232 181.009 412.704 181.009 413.388C181.009 414.072 181.457 414.544 182.118 414.544C182.767 414.544 183.215 414.072 183.215 413.388Z" fill="#121212"/>
<path d="M283.596 409.412L285.46 406.876H287.183L285.118 409.625C285.33 409.566 285.554 409.53 285.767 409.53C287.548 409.53 288.752 410.781 288.752 412.527C288.752 414.367 287.383 415.653 285.543 415.653C283.679 415.653 282.286 414.285 282.286 412.515C282.286 411.477 282.629 410.722 283.596 409.412ZM283.832 412.527C283.832 413.577 284.528 414.308 285.543 414.308C286.522 414.308 287.23 413.577 287.23 412.527C287.23 411.489 286.534 410.769 285.543 410.769C284.516 410.769 283.832 411.489 283.832 412.527ZM289.213 411.205C289.213 408.527 290.653 406.71 292.859 406.71C295.065 406.71 296.516 408.527 296.516 411.205C296.516 413.872 295.148 415.653 292.859 415.653C290.57 415.653 289.213 413.872 289.213 411.205ZM290.7 411.205C290.7 413.199 291.502 414.32 292.859 414.32C294.227 414.32 295.03 413.199 295.03 411.205C295.03 409.164 294.227 408.044 292.859 408.044C291.502 408.044 290.7 409.164 290.7 411.205ZM301.461 408.976C301.461 410.309 300.517 411.241 299.207 411.241C297.898 411.241 296.954 410.309 296.954 408.976C296.954 407.654 297.898 406.71 299.207 406.71C300.517 406.71 301.461 407.654 301.461 408.976ZM306.192 406.887L299.644 415.5H298.204L304.752 406.887H306.192ZM300.316 408.976C300.316 408.291 299.868 407.819 299.207 407.819C298.547 407.819 298.11 408.291 298.11 408.976C298.11 409.66 298.558 410.132 299.207 410.132C299.868 410.132 300.316 409.66 300.316 408.976ZM307.454 413.388C307.454 414.71 306.522 415.653 305.212 415.653C303.891 415.653 302.959 414.71 302.959 413.388C302.959 412.067 303.891 411.123 305.212 411.123C306.522 411.123 307.454 412.067 307.454 413.388ZM306.31 413.388C306.31 412.704 305.861 412.232 305.212 412.232C304.552 412.232 304.103 412.704 304.103 413.388C304.103 414.072 304.552 414.544 305.212 414.544C305.861 414.544 306.31 414.072 306.31 413.388Z" fill="#121212"/>
<path d="M405.486 413.058C405.486 412.031 406.064 411.205 406.961 410.863C406.206 410.521 405.793 409.872 405.793 409.035C405.793 407.666 407.008 406.722 408.79 406.722C410.559 406.722 411.751 407.654 411.751 409.058C411.751 409.896 411.326 410.545 410.559 410.863C411.468 411.182 412.058 412.02 412.058 413.058C412.058 414.615 410.772 415.642 408.766 415.642C406.772 415.642 405.486 414.627 405.486 413.058ZM407.162 409.164C407.162 409.884 407.787 410.344 408.766 410.344C409.734 410.344 410.347 409.896 410.347 409.176C410.347 408.457 409.734 408.008 408.766 408.008C407.787 408.008 407.162 408.457 407.162 409.164ZM406.961 412.952C406.961 413.789 407.657 414.308 408.778 414.308C409.875 414.308 410.571 413.789 410.571 412.952C410.571 412.114 409.875 411.595 408.766 411.595C407.657 411.595 406.961 412.114 406.961 412.952ZM412.584 411.205C412.584 408.527 414.024 406.71 416.23 406.71C418.436 406.71 419.887 408.527 419.887 411.205C419.887 413.872 418.519 415.653 416.23 415.653C413.941 415.653 412.584 413.872 412.584 411.205ZM414.071 411.205C414.071 413.199 414.873 414.32 416.23 414.32C417.598 414.32 418.401 413.199 418.401 411.205C418.401 409.164 417.598 408.044 416.23 408.044C414.873 408.044 414.071 409.164 414.071 411.205ZM424.832 408.976C424.832 410.309 423.888 411.241 422.578 411.241C421.269 411.241 420.325 410.309 420.325 408.976C420.325 407.654 421.269 406.71 422.578 406.71C423.888 406.71 424.832 407.654 424.832 408.976ZM429.563 406.887L423.015 415.5H421.575L428.123 406.887H429.563ZM423.687 408.976C423.687 408.291 423.239 407.819 422.578 407.819C421.917 407.819 421.481 408.291 421.481 408.976C421.481 409.66 421.929 410.132 422.578 410.132C423.239 410.132 423.687 409.66 423.687 408.976ZM430.825 413.388C430.825 414.71 429.893 415.653 428.583 415.653C427.262 415.653 426.33 414.71 426.33 413.388C426.33 412.067 427.262 411.123 428.583 411.123C429.893 411.123 430.825 412.067 430.825 413.388ZM429.681 413.388C429.681 412.704 429.232 412.232 428.583 412.232C427.923 412.232 427.474 412.704 427.474 413.388C427.474 414.072 427.923 414.544 428.583 414.544C429.232 414.544 429.681 414.072 429.681 413.388Z" fill="#121212"/>
<path d="M530.535 408.232H528.647V406.876H531.986V415.5H530.535V408.232ZM532.982 411.205C532.982 408.527 534.422 406.71 536.628 406.71C538.834 406.71 540.285 408.527 540.285 411.205C540.285 413.872 538.917 415.653 536.628 415.653C534.339 415.653 532.982 413.872 532.982 411.205ZM534.469 411.205C534.469 413.199 535.271 414.32 536.628 414.32C537.996 414.32 538.799 413.199 538.799 411.205C538.799 409.164 537.996 408.044 536.628 408.044C535.271 408.044 534.469 409.164 534.469 411.205ZM540.829 411.205C540.829 408.527 542.268 406.71 544.475 406.71C546.681 406.71 548.132 408.527 548.132 411.205C548.132 413.872 546.763 415.653 544.475 415.653C542.186 415.653 540.829 413.872 540.829 411.205ZM542.315 411.205C542.315 413.199 543.118 414.32 544.475 414.32C545.843 414.32 546.645 413.199 546.645 411.205C546.645 409.164 545.843 408.044 544.475 408.044C543.118 408.044 542.315 409.164 542.315 411.205ZM553.076 408.976C553.076 410.309 552.132 411.241 550.823 411.241C549.513 411.241 548.569 410.309 548.569 408.976C548.569 407.654 549.513 406.71 550.823 406.71C552.132 406.71 553.076 407.654 553.076 408.976ZM557.807 406.887L551.259 415.5H549.82L556.368 406.887H557.807ZM551.932 408.976C551.932 408.291 551.484 407.819 550.823 407.819C550.162 407.819 549.726 408.291 549.726 408.976C549.726 409.66 550.174 410.132 550.823 410.132C551.484 410.132 551.932 409.66 551.932 408.976ZM559.07 413.388C559.07 414.71 558.138 415.653 556.828 415.653C555.507 415.653 554.575 414.71 554.575 413.388C554.575 412.067 555.507 411.123 556.828 411.123C558.138 411.123 559.07 412.067 559.07 413.388ZM557.925 413.388C557.925 412.704 557.477 412.232 556.828 412.232C556.167 412.232 555.719 412.704 555.719 413.388C555.719 414.072 556.167 414.544 556.828 414.544C557.477 414.544 557.925 414.072 557.925 413.388Z" fill="#121212"/>
<path d="M155.988 21.336C150.024 21.336 146.16 17.192 146.16 10.78C146.16 4.424 150.164 0.195999 156.156 0.195999C161 0.195999 164.612 3.024 165.312 7.42L161.532 7.42C160.832 5.04 158.788 3.64 156.072 3.64C152.292 3.64 149.912 6.384 149.912 10.752C149.912 15.092 152.32 17.892 156.072 17.892C158.844 17.892 160.972 16.436 161.644 14.168H165.368C164.584 18.48 160.832 21.336 155.988 21.336ZM166.147 14.056C166.147 9.744 169.255 6.776 173.539 6.776C177.823 6.776 180.931 9.744 180.931 14.056C180.931 18.368 177.823 21.336 173.539 21.336C169.255 21.336 166.147 18.368 166.147 14.056ZM169.563 14.056C169.563 16.576 171.187 18.284 173.539 18.284C175.891 18.284 177.515 16.576 177.515 14.056C177.515 11.536 175.891 9.828 173.539 9.828C171.187 9.828 169.563 11.536 169.563 14.056ZM185.755 21L180.267 7.168L183.907 7.168L186.315 13.524C186.903 15.176 187.379 16.604 187.547 17.36C187.743 16.492 188.247 15.036 188.835 13.524L191.355 7.168L194.883 7.168L189.115 21H185.755ZM201.231 21.364C197.115 21.364 194.231 18.368 194.231 14.084C194.231 9.744 197.059 6.748 201.119 6.748C205.263 6.748 207.895 9.52 207.895 13.832V14.868L197.479 14.896C197.731 17.332 199.019 18.564 201.287 18.564C203.163 18.564 204.395 17.836 204.787 16.52L207.951 16.52C207.363 19.544 204.843 21.364 201.231 21.364ZM201.147 9.548C199.131 9.548 197.899 10.64 197.563 12.712H204.507C204.507 10.808 203.191 9.548 201.147 9.548ZM218.189 7.112V10.276H216.929C214.465 10.276 212.925 11.592 212.925 14.28V21H209.509V7.196H212.729L212.925 9.212C213.513 7.84 214.829 6.916 216.677 6.916C217.153 6.916 217.629 6.972 218.189 7.112ZM222.95 21.364C220.01 21.364 218.218 19.656 218.218 17.052C218.218 14.504 220.066 12.908 223.342 12.656L227.486 12.348V12.04C227.486 10.164 226.366 9.408 224.63 9.408C222.614 9.408 221.494 10.248 221.494 11.704H218.582C218.582 8.708 221.046 6.748 224.798 6.748C228.522 6.748 230.818 8.764 230.818 12.6V21H227.822L227.57 18.956C226.982 20.384 225.106 21.364 222.95 21.364ZM224.07 18.788C226.17 18.788 227.514 17.528 227.514 15.4V14.672L224.63 14.896C222.502 15.092 221.69 15.792 221.69 16.912C221.69 18.172 222.53 18.788 224.07 18.788ZM232.27 13.776C232.27 9.744 234.902 6.72 238.85 6.72C240.922 6.72 242.546 7.588 243.358 9.072L243.554 7.168H246.718V20.3C246.718 24.92 243.946 27.804 239.466 27.804C235.49 27.804 232.774 25.536 232.354 21.84H235.77C235.994 23.632 237.366 24.696 239.466 24.696C241.818 24.696 243.33 23.212 243.33 20.916V18.62C242.462 19.908 240.754 20.72 238.766 20.72C234.846 20.72 232.27 17.78 232.27 13.776ZM235.714 13.692C235.714 16.016 237.198 17.752 239.438 17.752C241.79 17.752 243.246 16.1 243.246 13.692C243.246 11.34 241.818 9.716 239.438 9.716C237.17 9.716 235.714 11.424 235.714 13.692ZM255.321 21.364C251.205 21.364 248.321 18.368 248.321 14.084C248.321 9.744 251.149 6.748 255.209 6.748C259.353 6.748 261.985 9.52 261.985 13.832V14.868L251.569 14.896C251.821 17.332 253.109 18.564 255.377 18.564C257.253 18.564 258.485 17.836 258.877 16.52L262.041 16.52C261.453 19.544 258.933 21.364 255.321 21.364ZM255.237 9.548C253.221 9.548 251.989 10.64 251.653 12.712H258.597C258.597 10.808 257.281 9.548 255.237 9.548ZM274.114 21H270.53V0.532L278.342 0.532C282.99 0.532 285.706 2.884 285.706 6.916C285.706 9.66 284.418 11.62 282.01 12.6L285.902 21H281.982L278.51 13.356H274.114V21ZM274.114 3.724V10.192H278.342C280.61 10.192 281.954 8.988 281.954 6.916C281.954 4.872 280.61 3.724 278.342 3.724L274.114 3.724ZM291.233 21.364C288.293 21.364 286.501 19.656 286.501 17.052C286.501 14.504 288.349 12.908 291.625 12.656L295.769 12.348V12.04C295.769 10.164 294.649 9.408 292.913 9.408C290.897 9.408 289.777 10.248 289.777 11.704H286.865C286.865 8.708 289.329 6.748 293.081 6.748C296.805 6.748 299.101 8.764 299.101 12.6V21H296.105L295.853 18.956C295.265 20.384 293.389 21.364 291.233 21.364ZM292.353 18.788C294.453 18.788 295.797 17.528 295.797 15.4V14.672L292.913 14.896C290.785 15.092 289.973 15.792 289.973 16.912C289.973 18.172 290.813 18.788 292.353 18.788ZM305.849 21H302.433V10.024H299.773V7.168L302.433 7.168V2.856L305.849 2.856V7.168L308.537 7.168V10.024H305.849V21ZM311.249 4.396C310.073 4.396 309.149 3.472 309.149 2.324C309.149 1.176 310.073 0.28 311.249 0.28C312.369 0.28 313.293 1.176 313.293 2.324C313.293 3.472 312.369 4.396 311.249 4.396ZM309.541 21V7.168H312.957V21L309.541 21ZM314.554 14.056C314.554 9.744 317.662 6.776 321.946 6.776C326.23 6.776 329.338 9.744 329.338 14.056C329.338 18.368 326.23 21.336 321.946 21.336C317.662 21.336 314.554 18.368 314.554 14.056ZM317.97 14.056C317.97 16.576 319.594 18.284 321.946 18.284C324.298 18.284 325.922 16.576 325.922 14.056C325.922 11.536 324.298 9.828 321.946 9.828C319.594 9.828 317.97 11.536 317.97 14.056ZM346.509 21.336C340.545 21.336 336.681 17.192 336.681 10.78C336.681 4.424 340.685 0.195999 346.677 0.195999C351.521 0.195999 355.133 3.024 355.833 7.42L352.053 7.42C351.353 5.04 349.309 3.64 346.593 3.64C342.813 3.64 340.433 6.384 340.433 10.752C340.433 15.092 342.841 17.892 346.593 17.892C349.365 17.892 351.493 16.436 352.165 14.168H355.889C355.105 18.48 351.353 21.336 346.509 21.336ZM356.667 14.056C356.667 9.744 359.775 6.776 364.059 6.776C368.343 6.776 371.451 9.744 371.451 14.056C371.451 18.368 368.343 21.336 364.059 21.336C359.775 21.336 356.667 18.368 356.667 14.056ZM360.083 14.056C360.083 16.576 361.707 18.284 364.059 18.284C366.411 18.284 368.035 16.576 368.035 14.056C368.035 11.536 366.411 9.828 364.059 9.828C361.707 9.828 360.083 11.536 360.083 14.056ZM376.455 21H373.039V7.168L376.175 7.168L376.455 8.792C377.155 7.644 378.555 6.748 380.543 6.748C382.643 6.748 384.099 7.784 384.827 9.38C385.527 7.784 387.151 6.748 389.251 6.748C392.611 6.748 394.459 8.764 394.459 11.956V21H391.071V12.852C391.071 10.864 390.007 9.828 388.383 9.828C386.731 9.828 385.471 10.892 385.471 13.16V21H382.055V12.824C382.055 10.892 381.019 9.856 379.395 9.856C377.771 9.856 376.455 10.92 376.455 13.16V21ZM396.692 27.412V7.168H399.856L400.08 9.268C400.92 7.672 402.74 6.748 404.84 6.748C408.732 6.748 411.308 9.576 411.308 13.916C411.308 18.228 408.956 21.364 404.84 21.364C402.768 21.364 400.976 20.552 400.108 19.152V27.412L396.692 27.412ZM400.136 14.084C400.136 16.576 401.676 18.284 404.028 18.284C406.436 18.284 407.864 16.548 407.864 14.084C407.864 11.62 406.436 9.856 404.028 9.856C401.676 9.856 400.136 11.592 400.136 14.084ZM417.024 21.364C414.084 21.364 412.292 19.656 412.292 17.052C412.292 14.504 414.14 12.908 417.416 12.656L421.56 12.348V12.04C421.56 10.164 420.44 9.408 418.704 9.408C416.688 9.408 415.568 10.248 415.568 11.704H412.656C412.656 8.708 415.12 6.748 418.872 6.748C422.596 6.748 424.892 8.764 424.892 12.6V21H421.896L421.644 18.956C421.056 20.384 419.18 21.364 417.024 21.364ZM418.144 18.788C420.244 18.788 421.588 17.528 421.588 15.4V14.672L418.704 14.896C416.576 15.092 415.764 15.792 415.764 16.912C415.764 18.172 416.604 18.788 418.144 18.788ZM435.808 7.112V10.276H434.548C432.084 10.276 430.544 11.592 430.544 14.28V21H427.128V7.196L430.348 7.196L430.544 9.212C431.132 7.84 432.448 6.916 434.296 6.916C434.772 6.916 435.248 6.972 435.808 7.112ZM438.708 4.396C437.532 4.396 436.608 3.472 436.608 2.324C436.608 1.176 437.532 0.28 438.708 0.28C439.828 0.28 440.752 1.176 440.752 2.324C440.752 3.472 439.828 4.396 438.708 4.396ZM437 21V7.168H440.416V21H437ZM441.761 16.8H445.009C445.037 18.004 445.933 18.76 447.501 18.76C449.097 18.76 449.965 18.116 449.965 17.108C449.965 16.408 449.601 15.904 448.369 15.624L445.877 15.036C443.385 14.476 442.181 13.3 442.181 11.088C442.181 8.372 444.477 6.748 447.669 6.748C450.777 6.748 452.877 8.54 452.905 11.228H449.657C449.629 10.052 448.845 9.296 447.529 9.296C446.185 9.296 445.401 9.912 445.401 10.948C445.401 11.732 446.017 12.236 447.193 12.516L449.685 13.104C452.009 13.636 453.185 14.7 453.185 16.828C453.185 19.628 450.805 21.364 447.389 21.364C443.945 21.364 441.761 19.516 441.761 16.8ZM453.854 14.056C453.854 9.744 456.962 6.776 461.246 6.776C465.53 6.776 468.638 9.744 468.638 14.056C468.638 18.368 465.53 21.336 461.246 21.336C456.962 21.336 453.854 18.368 453.854 14.056ZM457.27 14.056C457.27 16.576 458.894 18.284 461.246 18.284C463.598 18.284 465.222 16.576 465.222 14.056C465.222 11.536 463.598 9.828 461.246 9.828C458.894 9.828 457.27 11.536 457.27 14.056ZM473.642 21H470.226V7.168H473.39L473.67 8.96C474.538 7.56 476.218 6.748 478.094 6.748C481.566 6.748 483.358 8.904 483.358 12.488V21H479.942V13.3C479.942 10.976 478.794 9.856 477.03 9.856C474.93 9.856 473.642 11.312 473.642 13.552V21Z" fill="#8F2828"/>
</svg>
