<?xml version="1.0" standalone="no"?>
<!DOCTYPE svg PUBLIC "-//W3C//DTD SVG 20010904//EN"
 "http://www.w3.org/TR/2001/REC-SVG-20010904/DTD/svg10.dtd">
<svg version="1.0" xmlns="http://www.w3.org/2000/svg"
 width="380.000000pt" height="127.000000pt" viewBox="0 0 380.000000 127.000000"
 preserveAspectRatio="xMidYMid meet">

<g transform="translate(0.000000,127.000000) scale(0.100000,-0.100000)"
fill="#000000" stroke="none">
<path d="M0 635 l0 -635 1900 0 1900 0 0 635 0 635 -1900 0 -1900 0 0 -635z
m380 260 c27 -101 69 -164 133 -196 l41 -21 -37 34 c-46 44 -86 130 -89 194
l-3 49 55 0 54 0 12 -76 c13 -84 24 -111 62 -151 38 -41 44 -34 15 18 -22 39
-26 60 -27 128 l-1 81 57 3 56 3 -5 -98 c-4 -86 -2 -102 16 -130 34 -54 64
-67 167 -71 91 -4 94 -5 94 -28 0 -23 -2 -24 -82 -24 -97 0 -141 -17 -176 -70
-22 -32 -24 -43 -19 -127 l4 -93 -60 0 -60 0 6 78 c5 77 22 126 56 166 15 18
15 18 -4 8 -55 -29 -90 -94 -101 -190 l-7 -62 -58 0 c-68 0 -68 1 -44 93 17
67 52 126 92 155 15 12 23 22 16 22 -25 0 -99 -68 -125 -115 -15 -28 -32 -74
-38 -102 l-11 -53 -60 0 c-68 0 -68 1 -43 89 30 108 126 199 227 216 l39 7
-64 22 c-112 37 -179 111 -208 228 -18 69 -11 80 52 76 l53 -3 15 -60z m2110
-200 l0 -225 -35 0 -35 0 0 225 0 225 35 0 35 0 0 -225z m738 209 c26 -18 28
-50 5 -76 -32 -35 -85 -12 -85 37 0 27 23 55 47 55 6 0 21 -7 33 -16z m-1278
-89 c0 -45 0 -45 35 -45 32 0 35 -2 35 -30 0 -28 -3 -30 -35 -30 l-36 0 3 -87
3 -88 38 -3 c33 -3 37 -6 37 -32 0 -34 -24 -45 -76 -35 -64 11 -74 32 -74 145
l0 100 -25 0 c-21 0 -25 5 -25 30 0 25 4 30 25 30 23 0 25 4 25 45 0 45 0 45
35 45 35 0 35 0 35 -45z m-554 -61 c24 -16 54 -62 54 -84 0 -21 -62 -11 -82
15 -28 36 -89 35 -118 -2 -18 -23 -21 -37 -17 -76 5 -61 25 -82 79 -82 31 0
44 6 56 23 10 15 24 22 48 22 41 0 44 -17 9 -58 -69 -82 -201 -66 -251 30 -29
56 -12 161 34 201 44 39 136 44 188 11z m287 7 c29 -15 37 -16 37 -5 0 9 12
14 35 14 l35 0 0 -150 0 -150 -35 0 c-26 0 -35 4 -35 17 0 14 -2 14 -20 -2
-29 -27 -107 -31 -149 -7 -85 46 -98 197 -23 265 42 38 102 45 155 18z m560 0
c30 -15 37 -16 37 -4 0 10 10 13 38 11 l37 -3 0 -145 0 -145 -34 -3 c-19 -2
-37 2 -41 8 -6 9 -14 8 -34 -5 -37 -25 -118 -16 -153 16 -82 76 -66 226 30
270 53 24 74 24 120 0z m799 9 c39 -11 68 -42 68 -72 0 -25 -51 -24 -73 2 -26
31 -87 24 -87 -10 0 -17 18 -27 92 -50 43 -13 78 -52 78 -86 0 -13 -13 -38
-28 -55 -49 -55 -156 -51 -202 9 -29 37 -25 52 13 52 22 0 36 -7 45 -21 10
-15 21 -19 50 -17 31 3 37 7 40 29 3 24 -2 27 -58 43 -33 9 -69 27 -80 38 -41
44 -17 110 50 137 33 13 48 13 92 1z m451 -30 c37 -41 35 -60 -6 -60 -21 0
-36 7 -45 20 -14 23 -64 27 -81 7 -17 -21 6 -42 67 -62 63 -20 92 -48 92 -88
0 -39 -15 -64 -50 -82 -62 -32 -157 -9 -184 44 -21 41 -21 41 22 41 26 0 41
-6 50 -20 23 -38 104 -16 89 24 -3 8 -33 22 -66 32 -33 9 -68 25 -78 36 -21
23 -22 80 -3 104 45 53 146 55 193 4z m-873 -65 c0 -105 11 -141 47 -150 67
-16 93 27 93 155 l0 90 36 0 36 0 -4 -182 c-3 -156 -6 -187 -21 -209 -49 -72
-205 -71 -242 2 -22 41 -19 49 19 49 23 0 38 -7 48 -22 11 -16 25 -22 52 -22
46 0 66 20 73 75 l6 44 -21 -19 c-13 -11 -43 -21 -70 -24 -44 -4 -53 -1 -83
26 l-34 30 -3 126 -4 126 36 0 36 0 0 -95z m610 -55 l0 -150 -35 0 -35 0 0
150 0 150 35 0 35 0 0 -150z"/>
<path d="M1575 685 c-68 -67 4 -188 91 -155 39 15 53 39 54 88 0 56 -33 92
-85 92 -25 0 -44 -8 -60 -25z"/>
<path d="M2149 700 c-25 -15 -42 -65 -35 -103 16 -88 128 -102 162 -21 28 67
-10 134 -75 134 -20 0 -43 -5 -52 -10z"/>
</g>
</svg>
