<?xml version="1.0" standalone="no"?>
<!DOCTYPE svg PUBLIC "-//W3C//DTD SVG 20010904//EN"
 "http://www.w3.org/TR/2001/REC-SVG-20010904/DTD/svg10.dtd">
<svg version="1.0" xmlns="http://www.w3.org/2000/svg"
 width="380.000000pt" height="127.000000pt" viewBox="0 0 380.000000 127.000000"
 preserveAspectRatio="xMidYMid meet">

<rect width="100%" height="100%" fill="white"/>
<g transform="translate(0.000000,127.000000) scale(0.100000,-0.100000)"
fill="#000000" stroke="none">
<path d="M235 888 c21 -133 107 -226 245 -264 26 -7 35 -13 23 -13 -46 -2
-133 -43 -173 -82 -46 -45 -85 -121 -96 -186 l-7 -43 61 0 60 0 7 43 c14 88
74 180 137 213 37 19 47 12 14 -10 -35 -22 -77 -97 -92 -165 -20 -83 -21 -81
45 -81 l58 0 7 63 c8 78 45 156 86 180 l30 18 -24 -36 c-27 -40 -46 -113 -46
-180 l0 -45 60 0 61 0 -7 38 c-13 62 -8 136 11 176 27 56 74 76 180 76 84 0
85 0 85 25 0 25 -1 25 -80 25 -88 0 -132 14 -167 51 -31 34 -44 104 -33 175 6
32 10 60 10 62 0 1 -27 2 -60 2 l-60 0 0 -45 c0 -66 19 -140 46 -180 18 -28
20 -33 6 -26 -53 28 -89 98 -99 191 l-6 60 -59 0 -60 0 7 -42 c17 -100 59
-175 125 -220 l25 -17 -35 11 c-19 6 -56 33 -81 58 -37 37 -52 62 -68 115 -12
37 -21 73 -21 81 0 10 -15 14 -61 14 l-61 0 7 -42z"/>
<path d="M2400 675 l0 -225 35 0 35 0 0 225 0 225 -35 0 -35 0 0 -225z"/>
<path d="M3151 884 c-30 -22 -29 -71 4 -86 32 -14 75 12 75 46 0 40 -46 63
-79 40z"/>
<path d="M1860 795 c0 -41 -2 -45 -25 -45 -21 0 -25 -5 -25 -30 0 -25 4 -30
25 -30 25 0 25 0 25 -94 0 -78 3 -97 20 -118 22 -28 60 -39 103 -31 23 5 28
10 25 32 -2 21 -9 27 -38 31 l-35 5 -3 88 -3 87 36 0 c34 0 36 2 33 28 -2 22
-8 28 -35 30 -32 3 -33 5 -33 48 0 44 0 44 -35 44 -35 0 -35 0 -35 -45z"/>
<path d="M1253 750 c-71 -16 -113 -71 -113 -149 0 -109 80 -176 185 -157 40 8
90 50 100 84 6 19 3 22 -26 22 -21 0 -39 -8 -55 -25 -52 -56 -134 -15 -134 68
0 62 29 97 80 97 29 0 43 -6 58 -25 14 -17 30 -25 51 -25 35 0 38 8 16 50 -25
48 -97 75 -162 60z"/>
<path d="M1573 750 c-74 -17 -113 -71 -113 -157 0 -116 115 -190 208 -133 26
16 32 17 32 5 0 -10 11 -15 35 -15 l35 0 0 150 0 150 -35 0 c-26 0 -35 -4 -35
-16 0 -15 -2 -15 -22 -2 -32 21 -68 27 -105 18z m106 -86 c25 -32 28 -100 6
-131 -21 -30 -74 -39 -113 -19 -34 18 -42 33 -42 85 0 58 31 91 85 91 35 0 48
-5 64 -26z"/>
<path d="M2132 750 c-137 -32 -149 -257 -16 -300 43 -15 99 -7 125 16 18 16
19 16 19 1 0 -13 9 -17 35 -17 l35 0 0 150 0 150 -30 0 c-18 0 -33 -6 -36 -15
-5 -12 -9 -12 -27 -1 -31 19 -67 25 -105 16z m98 -70 c10 -5 24 -26 30 -45 34
-103 -68 -178 -142 -105 -28 28 -30 36 -25 78 3 31 12 52 27 64 24 20 81 24
110 8z"/>
<path d="M2933 749 c-17 -5 -41 -21 -52 -35 -45 -57 -14 -112 78 -138 60 -17
80 -38 60 -62 -18 -22 -77 -18 -91 6 -16 25 -78 29 -78 4 0 -26 54 -72 93 -79
84 -16 151 24 151 90 0 47 -25 70 -99 93 -52 15 -60 21 -60 42 0 22 5 25 37
28 29 2 39 -1 48 -17 15 -29 70 -29 70 -1 0 26 -43 70 -67 70 -10 0 -27 2 -38
4 -11 3 -34 0 -52 -5z"/>
<path d="M3342 750 c-51 -12 -72 -37 -72 -85 0 -51 10 -60 92 -89 55 -18 63
-24 63 -46 0 -22 -5 -25 -37 -28 -28 -2 -42 2 -55 17 -24 28 -73 29 -73 1 0
-39 61 -80 119 -80 71 0 121 43 121 104 0 32 -46 70 -103 84 -54 14 -75 35
-57 57 18 22 67 19 82 -5 8 -12 24 -20 40 -20 32 0 38 8 27 37 -16 43 -84 67
-147 53z"/>
<path d="M2530 643 c0 -83 4 -116 18 -143 30 -61 98 -77 161 -39 l34 20 -6
-43 c-10 -74 -74 -102 -123 -53 -29 29 -84 35 -84 9 0 -9 15 -31 34 -50 32
-32 38 -34 99 -34 56 0 70 4 96 26 45 37 52 79 49 254 l-3 155 -32 3 -31 3 -4
-106 c-3 -98 -5 -108 -27 -126 -30 -25 -66 -24 -91 1 -17 17 -20 33 -20 125
l0 105 -35 0 -35 0 0 -107z"/>
<path d="M3147 743 c-4 -3 -7 -71 -7 -150 l0 -143 35 0 35 0 0 150 0 150 -28
0 c-16 0 -32 -3 -35 -7z"/>
</g>
</svg>
