<?xml version="1.0" encoding="UTF-8" standalone="no"?>
<svg width="100%" height="100%" viewBox="0 0 380 127" version="1.1" xmlns="http://www.w3.org/2000/svg" xmlns:xlink="http://www.w3.org/1999/xlink" preserveAspectRatio="xMidYMid meet">
  <g  fill="#000000">
    <!-- Logo symbol (left side) -->
    <path d="M23.5,88.8 C25.6,75.5 34.2,66.2 48,62.4 C50.6,61.7 51.5,61.1 50.3,61.1 C45.7,60.9 36.4,56.8 32.8,52.9 C28.2,48.4 24.3,40.8 23.2,34.3 L22.5,30 L28.6,30 L34.6,30 L35.3,34.3 C36.7,43.1 42.7,52.3 49,55.6 C52.7,57.5 53.7,56.8 50.4,55.6 C46.9,53.4 42.7,45.9 41.2,39.1 C39.2,30.8 39.1,31 45.6,31 L51.4,31 L52.1,37.3 C52.9,45.1 56.6,52.9 60.7,55.3 L63.7,57.1 L61.3,53.5 C58.6,49.5 56.7,42.2 56.7,35.5 L56.7,31 L62.7,31 L68.8,31 L68.1,34.8 C66.8,41 67.3,48.4 69.2,52.4 C71.9,58 76.6,59.8 87.2,59.8 C95.6,59.8 95.7,59.8 95.7,62.3 C95.7,64.8 95.6,64.8 87.7,64.8 C78.9,64.8 74.5,66.2 71,69.9 C67.9,73.3 66.6,80.3 67.7,87.4 C68.3,90.6 68.7,93.4 68.7,93.6 C68.7,93.7 66,93.8 62.7,93.8 L56.7,93.8 L56.7,89.3 C56.7,82.7 58.6,75.3 61.3,71.3 L63.1,68.5 L61.7,69.2 C56.4,72 52.8,79 51.8,88.3 L51.2,94.3 L45.3,94.3 L39.3,94.3 L40,89.9 Z" />
    
    <!-- Text "catalysis" - vertically flipped -->
    <g transform="translate(0, 120) scale(1, -1)">
      <path d="M240,67.5 L240,45 L243.5,45 L247,45 L247,67.5 L247,90 L243.5,90 L240,90 L240,67.5 Z" />
      <path d="M315.1,88.4 C312.1,86.2 312.2,81.3 315.5,79.8 C318.7,78.4 323,80.9 323,84.4 C323,88.4 318.4,90.7 315.1,88.4 Z" />
      <path d="M186,79.5 C186,75.4 185.8,75 183.5,75 C181.4,75 181,74.5 181,72 C181,69.5 181.4,69 183.5,69 C186,69 186,69 186,59.6 C186,51.8 186.3,49.9 188,47.8 C190.2,45 194,43.9 198.3,44.7 C200.6,45.2 201.1,45.7 200.8,47.9 C200.6,50 199.9,50.6 196,51 L192.5,51.5 L192.2,60.3 L191.9,69 L195.5,69 C198.9,69 199.1,69.2 198.8,72 C198.6,74.2 198,74.8 195.3,75 C192.1,75.3 192,75.5 192,80 C192,84.4 192,84.4 188.5,84.4 C185,84.4 185,84.4 185,79.5 L186,79.5 Z" />
      <path d="M125.3,75 C118.2,73.4 114,67.9 114,60.1 C114,49.2 122,42.5 132.5,44.4 C136.5,45.2 141.5,49.4 142.5,52.8 C143.1,54.7 142.8,55 140.1,55 C137.9,55 136.1,54.2 134.5,52.5 C129.3,46.9 121.1,50.5 121.1,58.3 C121.1,64.5 124,68 130,68 C132.9,68 134.3,67.4 135.8,65.5 C137.2,63.8 138.8,63 141,63 C144.5,63 144.8,63.8 142.6,68 C140.1,72.8 132.9,76.5 125.3,75 Z" />
      <path d="M157.3,75 C149.9,73.3 146,67.9 146,59.3 C146,47.7 157.5,40.3 167,45.7 C169.6,47.3 170.2,47.4 170.2,46.2 C170.2,45.2 171.3,44.7 173.7,44.7 L177.2,44.7 L177.2,59.7 L177.2,74.7 L173.7,74.7 C171.1,74.7 170.2,74.3 170.2,73.1 C170.2,71.6 170,71.6 167.8,73 C164.6,75.1 161,75.7 157.3,75 Z M168,66.4 C170.5,63.2 170.8,56.4 168.6,53.3 C166.5,50.3 161.2,49.4 157.3,51.4 C153.9,53.2 153.1,54.7 153.1,60.5 C153.1,66.3 156.2,69.6 161.6,69.6 C165.1,69.6 166.4,69.1 168,66.4 Z" />
      <path d="M213.2,75 C199.5,71.8 198.3,49.3 211.6,45 C215.9,43.5 221.5,44.3 224.1,46.6 C225.9,48.2 226,48.2 226,46.7 C226,45.4 226.9,45 229.5,45 L233,45 L233,60 L233,75 C233,75 231.3,75 230,75 C228.2,75 226.7,74.4 226.4,73.5 C225.9,72.3 225.5,72.3 223.7,73.4 C220.6,75.3 217,76 213.2,75 Z M223,68 C224,67.5 225.4,65.4 226,63.5 C229.4,53.2 219.2,45.7 211.8,53.5 C209,56.3 208.8,57.1 209.3,61.3 C209.6,64.4 210.5,66.5 212,67.7 C214.4,69.7 220.1,70.1 223,68 Z" />
      <path d="M293.3,74.9 C291.6,74.4 289.2,72.8 288.1,71.4 C283.6,65.7 286.7,60.2 295.9,58.6 C301.9,57.9 303.9,56.8 301.9,54.8 C300.1,52.6 294.2,53 292.8,55.4 C291.2,58 284.9,58.3 284.9,55.8 C284.9,53.2 290.3,48.6 294.2,47.9 C302.6,46.3 309.3,50.3 309.3,57 C309.3,61.7 306.8,64 299.4,66.3 C294.2,67.8 293.4,68.4 293.4,70.5 C293.4,72.7 293.9,73 297.1,73.3 C300,73.5 301,73.2 301.9,71.6 C303.4,68.7 309.9,68.7 309.9,71.5 C309.9,74.1 305.6,78.5 303.2,78.5 C302.2,78.5 300.5,78.7 299.4,79 C298.3,79.3 295.3,79 293.3,74.9 Z" />
      <path d="M334.2,75 C329.1,73.8 326.9,71.3 326.9,66.5 C326.9,61.4 327.9,60.5 336.1,57.6 C341.6,55.8 342.4,55.2 342.4,53 C342.4,50.8 341.9,50.5 338.7,50.2 C335.9,50 334.5,50.4 333.2,52.1 C330.8,54.9 325.9,55 325.9,52.2 C325.9,48.3 332,44.2 338.8,44.2 C346,44.2 351,48.5 351,55.2 C351,58.4 346.4,62.2 340.7,63.6 C335.3,65 333.2,67.1 335,69.3 C336.8,71.5 342.7,71.2 344.1,68.8 C344.9,67.6 346.5,66.8 348.1,66.8 C351.3,66.8 351.9,67.6 350.8,70.5 C349.2,74.8 342.4,77.2 334.2,75 Z" />
      <path d="M253,64.3 C253,56 253.4,52.7 254.8,50 C257.8,43.9 264.6,42.3 270.9,46.1 L274.3,48.1 L273.7,43.8 C272.7,36.4 266.3,33.6 261.4,38.5 C258.5,41.4 253,42 253,38.4 C253,37.5 254.5,35.3 256.4,33.5 C259.6,30.2 260.2,30 266.3,30 C271.9,30 273.3,30.4 275.9,33 C280.4,36.7 281.1,40.9 280.8,58.4 L280.5,74 L277.3,74.3 L274.2,74.6 L273.8,63.9 C273.5,54.1 273.3,53.1 271.1,51.3 C268.1,48.8 264.5,48.9 262,51.4 C260.3,53.1 260,54.7 260,64 L260,74.5 L256.5,74.5 L253,74.5 L253,64.3 Z" />
      <path d="M314.7,74.3 C314.3,74 314,67.1 314,58.5 L314,43.5 L317.5,43.5 L321,43.5 L321,58.5 L321,73.5 L318.2,73.5 C316.6,73.5 315,73.2 314.7,74.3 Z" />
    </g>
  </g>
</svg>
